<svg fill="none" height="302" viewBox="0 0 208 302" width="208" xmlns="http://www.w3.org/2000/svg"><g fill="#8580a1"><path d="m105.768 140c.77-1.333 2.694-1.333 3.464 0l3.897 6.75c.77 1.333-.192 3-1.732 3h-7.794c-1.54 0-2.502-1.667-1.732-3z"/><path d="m205 6.76795c1.333.7698 1.333 2.6943 0 3.46415l-6.75 3.8971c-1.333.7698-3-.1925-3-1.7321v-7.79422c0-1.5396 1.667-2.50185 3-1.73205z"/><path d="m59 291.768c1.3333.77 1.3333 2.694 0 3.464l-6.75 3.897c-1.3333.77-3-.192-3-1.732v-7.794c0-1.54 1.6667-2.502 3-1.732z"/></g><path d="m0 294h102.5c2.761 0 5-2.239 5-5v-275.5c0-2.7614 2.239-5 5-5h93.5" stroke="#8580a1" stroke-dasharray="2 2"/></svg>