<svg fill="none" height="14" viewBox="0 0 18 14" width="18" xmlns="http://www.w3.org/2000/svg"><path d="m3.70711.292893c-.39053-.390524-1.02369-.390524-1.41422 0-.39052.390524-.39052 1.023687 0 1.414217l4.94977 4.94977-4.94974 4.94972c-.39052.3905-.39052 1.0237 0 1.4142.39053.3906 1.02369.3906 1.41422 0l4.94974-4.94971 4.94972 4.94971c.3905.3905 1.0237.3905 1.4142 0s.3905-1.0237 0-1.4142l-4.9497-4.94972 4.9497-4.94976c.3906-.39052.3906-1.023689 0-1.414213-.3905-.3905241-1.0236-.3905237-1.4142 0l-4.94972 4.949753z" fill="#fed501"/></svg>