<svg fill="none" height="16" viewBox="0 0 16 16" width="16" xmlns="http://www.w3.org/2000/svg"><path d="m7.99998 0c-4.41826 0-7.99998 3.58172-7.99998 7.99998 0 4.41832 3.58172 8.00002 7.99998 8.00002 4.41832 0 8.00002-3.5817 8.00002-8.00002-.0047-4.41629-3.5837-7.99525902-8.00002-7.99998zm3.36912 8.25488c-.0554.1111-.1454.20116-.2566.25654v.00285l-4.57137 2.28573c-.28232.1411-.62551.0266-.7666-.2557-.04011-.0803-.06077-.1689-.06027-.2586v-4.57141c-.00013-.3156.25557-.57154.57117-.5717.08876-.00004.17632.02059.2557.06026l4.57137 2.28573c.2825.14076.3974.48385.2566.7663z" fill="#333"/></svg>