<svg fill="none" height="16" viewBox="0 0 16 16" width="16" xmlns="http://www.w3.org/2000/svg" xmlns:xlink="http://www.w3.org/1999/xlink"><linearGradient id="a" gradientUnits="userSpaceOnUse" x1="8.00018" x2="8.00004" y1=".666992" y2="16.3112"><stop offset=".144954" stop-color="#c8c0f8"/><stop offset="1" stop-color="#585181"/></linearGradient><clipPath id="b"><path d="m0 0h16v16h-16z"/></clipPath><g clip-path="url(#b)"><path d="m14.8 1.4421c-.38-.31709-.8259-.545566-1.3053-.668837s-.9802-.138242-1.466-.043826l-1.176.288003c-.6137.11246-1.16858.43656-1.568.91588s-.61811 1.08352-.61803 1.70745v10.31133c-.4421.0647-.89125.0647-1.33334 0v-10.31133c.00221-.61817-.21143-1.21773-.60407-1.6952s-.93963-.8029-1.54659-.92013l-1.24934-.304003c-.48056-.087938-.97458-.069167-1.44708.054984-.4725.12415-.91194.350649-1.28721.663449-.375262.31281-.677183.70428-.884385 1.1467-.207203.44243-.31462246.92499-.314655 1.41353v7.1953c.0000383.7806.273984 1.5363.774089 2.1356.500101.5993 1.194651 1.0041 1.962581 1.1438l4.19066.762c.70931.1289 1.43603.1289 2.14534 0l4.19403-.762c.7673-.1404 1.4611-.5455 1.9605-1.1447s.7729-1.3546.7728-2.1347v-7.1953c.0003-.48837-.1071-.9708-.3145-1.41293-.2074-.44214-.5098-.83311-.8855-1.14507z" fill="url(#a)"/></g></svg>