<svg fill="none" height="36" viewBox="0 0 54 36" width="54" xmlns="http://www.w3.org/2000/svg" xmlns:xlink="http://www.w3.org/1999/xlink"><clipPath id="a"><path d="m36 0h18v18h-18z"/></clipPath><clipPath id="b"><path d="m18 0h18v18h-18z"/></clipPath><clipPath id="c"><path d="m0 0h18v18h-18z"/></clipPath><clipPath id="d"><path d="m36 18h18v18h-18z"/></clipPath><clipPath id="e"><path d="m18 18h18v18h-18z"/></clipPath><clipPath id="f"><path d="m0 18h18v18h-18z"/></clipPath><g clip-path="url(#a)"><path d="m43.0629 11.3861-.2978 4.188c.426 0 .6105-.183.8318-.4028l1.9972-1.9087 4.1385 3.0307c.759.423 1.2938.2003 1.4985-.6982l2.7165-12.72905.0008-.00075c.2407-1.122-.4058-1.56075-1.1453-1.2855l-15.9675 6.11325c-1.0897.423-1.0732 1.0305-.1852 1.30575l4.0822 1.2698 9.4823-5.9333c.4462-.2955.852-.132.5182.1635z" fill="#8580a1"/></g><g clip-path="url(#b)"><path d="m36 3.41888c-.6694.29362-1.3826.48824-2.1263.58274.765-.45675 1.3489-1.1745 1.6234-2.03962-.7132.42525-1.5007.72563-2.34.89325-.6772-.72112-1.6425-1.16775-2.6955-1.16775-2.043 0-3.6877 1.65825-3.6877 3.69113 0 .2925.0247.57374.0855.84149-3.0679-.14962-5.7825-1.61999-7.6062-3.85987-.3183.55238-.5051 1.18463-.5051 1.86525 0 1.278.6581 2.41087 1.6391 3.06675-.5928-.01125-1.1745-.18337-1.6672-.4545v.0405c0 1.79325 1.2791 3.28275 2.9565 3.62585-.3004.0821-.6278.1215-.9675.1215-.2363 0-.4748-.0135-.6986-.063.4781 1.4614 1.8349 2.5358 3.4481 2.5706-1.2555.9822-2.8496 1.5739-4.5754 1.5739-.3026 0-.5929-.0135-.8831-.0506 1.6346 1.0541 3.5719 1.656 5.661 1.656 6.7905 0 10.503-5.625 10.503-10.50075 0-.16313-.0056-.32062-.0135-.477.7324-.51975 1.3477-1.16887 1.8495-1.91587z" fill="#8580a1"/></g><g clip-path="url(#c)"><path d="m11.9976 2.98875h1.6433v-2.862c-.2835-.039-1.2585-.12675-2.394-.12675-2.36926 0-3.99226 1.49025-3.99226 4.22925v2.52075h-2.6145v3.1995h2.6145v8.0505h3.20546v-8.04975h2.5088l.3982-3.1995h-2.9077v-2.20425c.0007-.92475.2497-1.55775 1.5382-1.55775z" fill="#8580a1"/></g><g clip-path="url(#d)"><path d="m43.0629 29.3861-.2978 4.188c.426 0 .6105-.183.8318-.4028l1.9972-1.9087 4.1385 3.0307c.759.423 1.2938.2003 1.4985-.6982l2.7165-12.729.0008-.0008c.2407-1.122-.4058-1.5607-1.1453-1.2855l-15.9675 6.1133c-1.0897.423-1.0732 1.0305-.1852 1.3057l4.0822 1.2698 9.4823-5.9333c.4462-.2955.852-.132.5182.1635z" fill="#ffe145"/></g><g clip-path="url(#e)"><path d="m36 21.4189c-.6694.2936-1.3826.4882-2.1263.5827.765-.4567 1.3489-1.1745 1.6234-2.0396-.7132.4252-1.5007.7256-2.34.8933-.6772-.7212-1.6425-1.1678-2.6955-1.1678-2.043 0-3.6877 1.6583-3.6877 3.6911 0 .2925.0247.5738.0855.8415-3.0679-.1496-5.7825-1.62-7.6062-3.8598-.3183.5523-.5051 1.1846-.5051 1.8652 0 1.278.6581 2.4109 1.6391 3.0667-.5928-.0112-1.1745-.1833-1.6672-.4544v.0404c0 1.7933 1.2791 3.2828 2.9565 3.6259-.3004.0821-.6278.1215-.9675.1215-.2363 0-.4748-.0135-.6986-.063.4781 1.4614 1.8349 2.5358 3.4481 2.5706-1.2555.9822-2.8496 1.5739-4.5754 1.5739-.3026 0-.5929-.0135-.8831-.0506 1.6346 1.0541 3.5719 1.656 5.661 1.656 6.7905 0 10.503-5.625 10.503-10.5008 0-.1631-.0056-.3206-.0135-.4769.7324-.5198 1.3477-1.1689 1.8495-1.9159z" fill="#ffe145"/></g><g clip-path="url(#f)"><path d="m11.9976 20.9887h1.6433v-2.862c-.2835-.039-1.2585-.1267-2.394-.1267-2.36926 0-3.99226 1.4902-3.99226 4.2292v2.5208h-2.6145v3.1995h2.6145v8.0505h3.20546v-8.0497h2.5088l.3982-3.1995h-2.9077v-2.2043c.0007-.9248.2497-1.5578 1.5382-1.5578z" fill="#ffe145"/></g></svg>