<svg width="44" height="16" viewBox="0 0 44 16" fill="none" xmlns="http://www.w3.org/2000/svg">
<path fill-rule="evenodd" clip-rule="evenodd" d="M22 7.9972C22 11.0689 21.7081 12.9571 21.0247 14.1282C20.3348 15.3778 19.527 15.7708 17.8783 15.8863C16.7149 15.9542 13.7946 16 11.0027 16C8.20442 16 5.28276 15.9543 4.1086 15.8855C2.47493 15.7708 1.66701 15.3784 0.977912 14.1424C0.292795 12.948 0 11.052 0 8.0084C0 4.94737 0.291384 3.0609 0.971932 1.8626C1.67011 0.610465 2.49112 0.213258 4.111 0.118492C5.23145 0.0425064 7.99661 0 11.0027 0C14.0023 0 16.7662 0.0425222 17.8783 0.117901C19.5073 0.213032 20.3281 0.609363 21.0202 1.85803C21.7108 3.06048 22 4.93778 22 7.9972ZM9 5L14 8L9 11V5Z" fill="#8580A1"/>
<path fill-rule="evenodd" clip-rule="evenodd" d="M44 7.9972C44 11.0689 43.7081 12.9571 43.0247 14.1282C42.3348 15.3778 41.527 15.7708 39.8783 15.8863C38.7149 15.9542 35.7946 16 33.0027 16C30.2044 16 27.2828 15.9543 26.1086 15.8855C24.4749 15.7708 23.667 15.3784 22.9779 14.1424C22.2928 12.948 22 11.052 22 8.0084C22 4.94737 22.2914 3.0609 22.9719 1.8626C23.6701 0.610465 24.4911 0.213258 26.111 0.118492C27.2314 0.0425064 29.9966 0 33.0027 0C36.0023 0 38.7662 0.0425222 39.8783 0.117901C41.5073 0.213032 42.3281 0.609363 43.0202 1.85803C43.7108 3.06048 44 4.93778 44 7.9972ZM31 5L36 8L31 11V5Z" fill="#FFE145"/>
</svg>
