<svg width="96" height="32" viewBox="0 0 96 32" fill="none" xmlns="http://www.w3.org/2000/svg">
<path d="M88.7982 16.8421C88.7623 12.8412 92.0692 10.8947 92.2204 10.8041C90.3476 8.06929 87.4447 7.69564 86.4246 7.66585C83.9865 7.40888 81.6216 9.12695 80.3796 9.12695C79.1128 9.12695 77.2003 7.69067 75.139 7.73288C72.4865 7.77385 70.0051 9.31191 68.6441 11.7003C65.8354 16.5703 67.9302 23.7268 70.6211 27.6632C71.9672 29.5911 73.5401 31.7436 75.5989 31.6679C77.6131 31.5847 78.3654 30.3818 80.7961 30.3818C83.2044 30.3818 83.9109 31.6679 86.0106 31.6195C88.1723 31.5847 89.5332 29.683 90.8322 27.7377C92.3878 25.5281 93.0125 23.3519 93.0373 23.2402C92.9865 23.2228 88.8391 21.6376 88.7982 16.8421Z" fill="#45405B"/>
<path d="M84.8319 5.076C85.9152 3.71917 86.6564 1.87324 86.4507 0C84.8827 0.0695172 82.9219 1.08621 81.7927 2.41324C80.7937 3.58262 79.9012 5.49931 80.1318 7.30179C81.8931 7.43338 83.7015 6.41172 84.8319 5.076Z" fill="#45405B"/>
<path d="M2.49772 0.40918C2.12443 0.78247 2 1.40462 2 2.1512V29.6502C2 30.3968 2.24886 31.019 2.62215 31.3923L2.74658 31.5167L18.1759 16.0874V15.8385L2.49772 0.40918Z" fill="url(#paint0_linear_55:45)"/>
<path d="M23.153 21.3129L18.0514 16.2112V15.8379L23.153 10.7363L23.2775 10.8608L29.3746 14.3448C31.1166 15.3402 31.1166 16.9578 29.3746 17.9533L23.153 21.3129Z" fill="url(#paint1_linear_55:45)"/>
<path d="M23.2775 21.189L18.0514 15.9629L2.49768 31.5166C3.11983 32.1388 3.99084 32.1388 5.11071 31.6411L23.2775 21.189Z" fill="url(#paint2_linear_55:45)"/>
<path d="M23.2775 10.7367L5.11071 0.409033C3.99084 -0.213117 3.11983 -0.0886871 2.49768 0.533463L18.0514 15.9628L23.2775 10.7367Z" fill="url(#paint3_linear_55:45)"/>
<g clip-path="url(#clip0_55:45)">
<path d="M55.7407 0.154217C54.9934 -0.212482 54.0869 0.0973324 53.7204 0.844402L51.5036 5.36197C51.4448 5.48185 51.436 5.62027 51.4792 5.74649C51.5222 5.87271 51.6137 5.97672 51.7336 6.03556L53.5407 6.92227C53.612 6.95719 53.6877 6.97379 53.7622 6.97379C53.948 6.97379 54.1267 6.87027 54.2143 6.69205L56.4309 2.17448C56.7976 1.42716 56.488 0.520916 55.7407 0.154217V0.154217Z" fill="#3FC448"/>
<path d="M42.3413 0.844444C41.9746 0.0971309 41.0684 -0.212439 40.3211 0.15426C39.5737 0.520958 39.2639 1.42721 39.6309 2.17452L41.8474 6.69209C41.9348 6.87031 42.1135 6.97383 42.2996 6.97383C42.374 6.97383 42.4497 6.95723 42.521 6.92232L44.3281 6.03535C44.4478 5.97676 44.5396 5.87276 44.5825 5.74654C44.6257 5.62007 44.6169 5.48189 44.5581 5.36202L42.3413 0.844444Z" fill="#3FC448"/>
<path d="M60.3596 13.3809C59.111 13.3809 58.0952 14.3965 58.0952 15.6453V23.1936C58.0952 24.4421 59.111 25.458 60.3596 25.458C61.6083 25.458 62.6242 24.4421 62.6242 23.1936V15.6453C62.6242 14.3967 61.6083 13.3809 60.3596 13.3809V13.3809Z" fill="#78D67F"/>
<path d="M56.5854 13.3809H39.4761C39.1982 13.3809 38.9729 13.606 38.9729 13.884V25.9612C38.9729 26.239 39.1982 26.4643 39.4761 26.4643H41.489V29.7353C41.489 30.9839 42.5049 31.9997 43.7534 31.9997C45.0022 31.9997 46.0181 30.9839 46.0181 29.7353V26.4643H50.0437V29.7353C50.0437 30.9839 51.0596 31.9997 52.3081 31.9997C53.5569 31.9997 54.5727 30.9839 54.5727 29.7353V26.4643H56.5854C56.8635 26.4643 57.0888 26.239 57.0888 25.9612V13.884C57.0888 13.606 56.8635 13.3809 56.5854 13.3809V13.3809Z" fill="#78D67F"/>
<path d="M40.4827 25.9612V13.884C40.4827 13.606 40.708 13.3809 40.9858 13.3809H39.4761C39.1982 13.3809 38.9729 13.606 38.9729 13.884V25.9612C38.9729 26.239 39.1982 26.4643 39.4761 26.4643H40.9858C40.708 26.4643 40.4827 26.239 40.4827 25.9612Z" fill="#65D06C"/>
<path d="M51.5535 29.7349V26.4639H50.0437V29.7349C50.0437 30.9834 51.0596 31.9993 52.3081 31.9993C52.5728 31.9993 52.8267 31.9534 53.063 31.8694C52.1846 31.5579 51.5535 30.719 51.5535 29.7349V29.7349Z" fill="#65D06C"/>
<path d="M42.9988 29.7349V26.4639H41.489V29.7349C41.489 30.9834 42.5049 31.9993 43.7534 31.9993C44.0181 31.9993 44.272 31.9534 44.5083 31.8694C43.6296 31.5579 42.9988 30.719 42.9988 29.7349V29.7349Z" fill="#65D06C"/>
<path d="M35.7019 13.3809C34.4534 13.3809 33.4375 14.3965 33.4375 15.6453V23.1936C33.4375 24.4421 34.4534 25.458 35.7019 25.458C36.9507 25.458 37.9665 24.4421 37.9665 23.1936V15.6453C37.9665 14.3967 36.9507 13.3809 35.7019 13.3809V13.3809Z" fill="#65D06C"/>
<path d="M48.0307 2.81348C43.0364 2.81348 38.9729 6.8767 38.9729 11.8713C38.9729 12.1492 39.1982 12.3745 39.4761 12.3745H56.5854C56.8635 12.3745 57.0888 12.1492 57.0888 11.8713C57.0888 6.8767 53.0254 2.81348 48.0307 2.81348ZM45.0115 8.85204C45.0115 9.40697 44.5601 9.85839 44.0051 9.85839C43.4502 9.85839 42.9988 9.40697 42.9988 8.85204C42.9988 8.29711 43.4502 7.8457 44.0051 7.8457C44.5601 7.8457 45.0115 8.29711 45.0115 8.85204ZM51.05 8.85204C51.05 8.29711 51.5017 7.8457 52.0566 7.8457C52.6116 7.8457 53.063 8.29711 53.063 8.85204C53.063 9.40697 52.6116 9.85839 52.0566 9.85839C51.5017 9.85839 51.05 9.40697 51.05 8.85204Z" fill="#78D67F"/>
<path d="M40.9858 11.8713C40.9858 7.21703 44.5146 3.37183 49.0373 2.86963C48.7068 2.83301 48.3711 2.81348 48.0307 2.81348C43.0364 2.81348 38.9729 6.8767 38.9729 11.8713C38.9729 12.1492 39.1982 12.3745 39.4761 12.3745H41.489C41.2112 12.3745 40.9858 12.1492 40.9858 11.8713Z" fill="#65D06C"/>
</g>
<defs>
<linearGradient id="paint0_linear_55:45" x1="16.6827" y1="1.91478" x2="-4.20035" y2="22.7966" gradientUnits="userSpaceOnUse">
<stop stop-color="#00A0FF"/>
<stop offset="0.007" stop-color="#00A1FF"/>
<stop offset="0.26" stop-color="#00BEFF"/>
<stop offset="0.512" stop-color="#00D2FF"/>
<stop offset="0.76" stop-color="#00DFFF"/>
<stop offset="1" stop-color="#00E3FF"/>
</linearGradient>
<linearGradient id="paint1_linear_55:45" x1="31.6566" y1="15.9636" x2="1.54819" y2="15.9636" gradientUnits="userSpaceOnUse">
<stop stop-color="#FFE000"/>
<stop offset="0.409" stop-color="#FFBD00"/>
<stop offset="0.775" stop-color="#FFA500"/>
<stop offset="1" stop-color="#FF9C00"/>
</linearGradient>
<linearGradient id="paint2_linear_55:45" x1="20.4492" y1="18.8198" x2="-7.86858" y2="47.1376" gradientUnits="userSpaceOnUse">
<stop stop-color="#FF3A44"/>
<stop offset="1" stop-color="#C31162"/>
</linearGradient>
<linearGradient id="paint3_linear_55:45" x1="-1.36338" y1="-8.70422" x2="11.2824" y2="3.9416" gradientUnits="userSpaceOnUse">
<stop stop-color="#32A071"/>
<stop offset="0.069" stop-color="#2DA771"/>
<stop offset="0.476" stop-color="#15CF74"/>
<stop offset="0.801" stop-color="#06E775"/>
<stop offset="1" stop-color="#00F076"/>
</linearGradient>
<clipPath id="clip0_55:45">
<rect width="32" height="32" fill="white" transform="translate(32)"/>
</clipPath>
</defs>
</svg>
