<svg width="64" height="16" viewBox="0 0 64 16" fill="none" xmlns="http://www.w3.org/2000/svg">
<g clip-path="url(#clip0)">
<path d="M63.8593 3.17871L59.0068 7.99993L63.8593 12.8211C63.947 12.6378 64.0002 12.4351 64.0002 12.2187V3.78118C64.0002 3.56471 63.947 3.36205 63.8593 3.17871Z" fill="#FFE145"/>
<path d="M62.5937 2.375H49.4062C49.1897 2.375 48.9871 2.42822 48.8037 2.51594L55.0057 8.68667C55.5541 9.23505 56.4458 9.23505 56.9942 8.68667L63.1961 2.51594C63.0128 2.42822 62.8101 2.375 62.5937 2.375Z" fill="#FFE145"/>
<path d="M48.1409 3.17871C48.0532 3.36205 48 3.56471 48 3.78118V12.2187C48 12.4351 48.0532 12.6378 48.1409 12.8211L52.9934 7.99993L48.1409 3.17871Z" fill="#FFE145"/>
<path d="M58.3437 8.66309L57.657 9.34974C56.7433 10.2635 55.2565 10.2635 54.3428 9.34974L53.6562 8.66309L48.8037 13.4843C48.9871 13.572 49.1897 13.6252 49.4062 13.6252H62.5937C62.8101 13.6252 63.0128 13.572 63.1961 13.4843L58.3437 8.66309Z" fill="#FFE145"/>
</g>
<g clip-path="url(#clip1)">
<path d="M47.8593 3.17871L43.0068 7.99993L47.8593 12.8211C47.947 12.6378 48.0002 12.4351 48.0002 12.2187V3.78118C48.0002 3.56471 47.947 3.36205 47.8593 3.17871Z" fill="#8580A1"/>
<path d="M46.5937 2.375H33.4062C33.1897 2.375 32.9871 2.42822 32.8037 2.51594L39.0057 8.68667C39.5541 9.23505 40.4458 9.23505 40.9942 8.68667L47.1961 2.51594C47.0128 2.42822 46.8101 2.375 46.5937 2.375Z" fill="#8580A1"/>
<path d="M32.1409 3.17871C32.0532 3.36205 32 3.56471 32 3.78118V12.2187C32 12.4351 32.0532 12.6378 32.1409 12.8211L36.9934 7.99993L32.1409 3.17871Z" fill="#8580A1"/>
<path d="M42.3437 8.66309L41.657 9.34974C40.7433 10.2635 39.2565 10.2635 38.3428 9.34974L37.6562 8.66309L32.8037 13.4843C32.9871 13.572 33.1897 13.6252 33.4062 13.6252H46.5937C46.8101 13.6252 47.0128 13.572 47.1961 13.4843L42.3437 8.66309Z" fill="#8580A1"/>
</g>
<g clip-path="url(#clip2)">
<path d="M15.5643 11.7424L13.3315 9.50954C12.534 8.71209 11.1784 9.0311 10.8594 10.0678C10.6202 10.7855 9.82272 11.1842 9.10501 11.0247C7.51012 10.626 5.35702 8.5526 4.9583 6.87797C4.71906 6.16024 5.19753 5.36279 5.91523 5.12359C6.95191 4.80461 7.27089 3.44895 6.47344 2.65151L4.2406 0.418659C3.60264 -0.139553 2.64571 -0.139553 2.08749 0.418659L0.572347 1.93381C-0.9428 3.5287 0.731836 7.75516 4.47983 11.5032C8.22783 15.2511 12.4543 17.0056 14.0492 15.4106L15.5643 13.8955C16.1226 13.2575 16.1226 12.3006 15.5643 11.7424Z" fill="#8580A1"/>
</g>
<g clip-path="url(#clip3)">
<path d="M31.5643 11.7424L29.3315 9.50954C28.534 8.71209 27.1784 9.0311 26.8594 10.0678C26.6202 10.7855 25.8227 11.1842 25.105 11.0247C23.5101 10.626 21.357 8.5526 20.9583 6.87797C20.7191 6.16024 21.1975 5.36279 21.9152 5.12359C22.9519 4.80461 23.2709 3.44895 22.4734 2.65151L20.2406 0.418659C19.6026 -0.139553 18.6457 -0.139553 18.0875 0.418659L16.5723 1.93381C15.0572 3.5287 16.7318 7.75516 20.4798 11.5032C24.2278 15.2511 28.4543 17.0056 30.0492 15.4106L31.5643 13.8955C32.1226 13.2575 32.1226 12.3006 31.5643 11.7424Z" fill="#FFE145"/>
</g>
<defs>
<clipPath id="clip0">
<rect width="16" height="16" fill="white" transform="translate(48)"/>
</clipPath>
<clipPath id="clip1">
<rect width="16" height="16" fill="white" transform="translate(32)"/>
</clipPath>
<clipPath id="clip2">
<rect width="16" height="16" fill="white"/>
</clipPath>
<clipPath id="clip3">
<rect width="16" height="16" fill="white" transform="translate(16)"/>
</clipPath>
</defs>
</svg>
