<svg fill="none" height="10" viewBox="0 0 10 10" width="10" xmlns="http://www.w3.org/2000/svg"><path d="m7.77793 4.6098-4.45012-4.450045c-.10293-.1030075-.24033-.159755-.38683-.159755s-.2839.0567475-.38682.159755l-.32773.327639c-.21325.213495-.21325.560486 0 .773656l3.73689 3.73688-3.74103 3.74102c-.10293.10301-.15976.24033-.15976.38675 0 .14658.05683.2839.15976.38699l.32772.32756c.10301.103.24032.15975.38683.15975.1465 0 .2839-.05675.38682-.15975l4.45427-4.45411c.10317-.10334.15984-.2413.15952-.38797.00032-.14723-.05635-.28512-.15952-.38837z" fill="#fed501"/></svg>