<svg fill="none" height="8" viewBox="0 0 8 8" width="8" xmlns="http://www.w3.org/2000/svg"><path d="m6.57232 3.68784-3.5601-3.560036c-.08234-.082406-.19226-.127804-.30946-.127804s-.22712.045398-.30946.127804l-.26218.262111c-.1706.170796-.1706.448387 0 .618925l2.98951 2.9895-2.99283 2.99282c-.08234.08241-.1278.19226-.1278.3094 0 .11726.04546.22712.1278.30959l.26218.26204c.08241.08241.19226.12781.30946.12781s.22712-.0454.30946-.12781l3.56342-3.56328c.08254-.08267.12787-.19304.12761-.31038.00026-.11778-.04507-.22809-.12761-.31069z" fill="#fed501"/></svg>