<svg fill="none" height="32" viewBox="0 0 96 32" width="96" xmlns="http://www.w3.org/2000/svg" xmlns:xlink="http://www.w3.org/1999/xlink"><linearGradient id="a" gradientUnits="userSpaceOnUse" x1="16.6827" x2="-4.20035" y1="1.91478" y2="22.7966"><stop offset="0" stop-color="#00a0ff"/><stop offset=".007" stop-color="#00a1ff"/><stop offset=".26" stop-color="#00beff"/><stop offset=".512" stop-color="#00d2ff"/><stop offset=".76" stop-color="#00dfff"/><stop offset="1" stop-color="#00e3ff"/></linearGradient><linearGradient id="b" gradientUnits="userSpaceOnUse" x1="31.6566" x2="1.54819" y1="15.9636" y2="15.9636"><stop offset="0" stop-color="#ffe000"/><stop offset=".409" stop-color="#ffbd00"/><stop offset=".775" stop-color="#ffa500"/><stop offset="1" stop-color="#ff9c00"/></linearGradient><linearGradient id="c" gradientUnits="userSpaceOnUse" x1="20.4492" x2="-7.86858" y1="18.8198" y2="47.1376"><stop offset="0" stop-color="#ff3a44"/><stop offset="1" stop-color="#c31162"/></linearGradient><linearGradient id="d" gradientUnits="userSpaceOnUse" x1="-1.36338" x2="11.2824" y1="-8.70422" y2="3.9416"><stop offset="0" stop-color="#32a071"/><stop offset=".069" stop-color="#2da771"/><stop offset=".476" stop-color="#15cf74"/><stop offset=".801" stop-color="#06e775"/><stop offset="1" stop-color="#00f076"/></linearGradient><clipPath id="e"><path d="m32 0h32v32h-32z"/></clipPath><path d="m88.7982 16.8421c-.0359-4.0009 3.271-5.9474 3.4222-6.038-1.8728-2.73481-4.7757-3.10846-5.7958-3.13825-2.4381-.25697-4.803 1.4611-6.045 1.4611-1.2668 0-3.1793-1.43628-5.2406-1.39407-2.6525.04097-5.1339 1.57903-6.4949 3.96742-2.8087 4.87-.7139 12.0265 1.977 15.9629 1.3461 1.9279 2.919 4.0804 4.9778 4.0047 2.0142-.0832 2.7665-1.2861 5.1972-1.2861 2.4083 0 3.1148 1.2861 5.2145 1.2377 2.1617-.0348 3.5226-1.9365 4.8216-3.8818 1.5556-2.2096 2.1803-4.3858 2.2051-4.4975-.0508-.0174-4.1982-1.6026-4.2391-6.3981z" fill="#45405b"/><path d="m84.8319 5.076c1.0833-1.35683 1.8245-3.20276 1.6188-5.076-1.568.0695172-3.5288 1.08621-4.658 2.41324-.999 1.16938-1.8915 3.08607-1.6609 4.88855 1.7613.13159 3.5697-.89007 4.7001-2.22579z" fill="#45405b"/><path d="m2.49772.40918c-.37329.37329-.49772.99544-.49772 1.74202v27.499c0 .7466.24886 1.3688.62215 1.7421l.12443.1244 15.42932-15.4293v-.2489z" fill="url(#a)"/><path d="m23.153 21.3129-5.1016-5.1017v-.3733l5.1016-5.1016.1245.1245 6.0971 3.484c1.742.9954 1.742 2.613 0 3.6085z" fill="url(#b)"/><path d="m23.2775 21.189-5.2261-5.2261-15.55372 15.5537c.62215.6222 1.49316.6222 2.61303.1245z" fill="url(#c)"/><path d="m23.2775 10.7367-18.16679-10.327667c-1.11987-.62215-1.99088-.4977201-2.61303.12443l15.55372 15.429337z" fill="url(#d)"/><g clip-path="url(#e)"><path d="m55.7407.154217c-.7473-.366699-1.6538-.0568846-2.0203.690185l-2.2168 4.517568c-.0588.11988-.0676.2583-.0244.38452.043.12622.1345.23023.2544.28907l1.8071.88671c.0713.03492.147.05152.2215.05152.1858 0 .3645-.10352.4521-.28174l2.2166-4.51757c.3667-.74732.0571-1.653564-.6902-2.020263z" fill="#3fc448"/><path d="m42.3413.844444c-.3667-.7473131-1.2729-1.056883-2.0202-.690184-.7474.366698-1.0572 1.27295-.6902 2.02026l2.2165 4.51757c.0874.17822.2661.28174.4522.28174.0744 0 .1501-.0166.2214-.05151l1.8071-.88697c.1197-.05859.2115-.16259.2544-.28881.0432-.12647.0344-.26465-.0244-.38452z" fill="#3fc448"/><path d="m60.3596 13.3809c-1.2486 0-2.2644 1.0156-2.2644 2.2644v7.5483c0 1.2485 1.0158 2.2644 2.2644 2.2644 1.2487 0 2.2646-1.0159 2.2646-2.2644v-7.5483c0-1.2486-1.0159-2.2644-2.2646-2.2644z" fill="#78d67f"/><path d="m56.5854 13.3809h-17.1093c-.2779 0-.5032.2251-.5032.5031v12.0772c0 .2778.2253.5031.5032.5031h2.0129v3.271c0 1.2486 1.0159 2.2644 2.2644 2.2644 1.2488 0 2.2647-1.0158 2.2647-2.2644v-3.271h4.0256v3.271c0 1.2486 1.0159 2.2644 2.2644 2.2644 1.2488 0 2.2646-1.0158 2.2646-2.2644v-3.271h2.0127c.2781 0 .5034-.2253.5034-.5031v-12.0772c0-.278-.2253-.5031-.5034-.5031z" fill="#78d67f"/><g fill="#65d06c"><path d="m40.4827 25.9612v-12.0772c0-.278.2253-.5031.5031-.5031h-1.5097c-.2779 0-.5032.2251-.5032.5031v12.0772c0 .2778.2253.5031.5032.5031h1.5097c-.2778 0-.5031-.2253-.5031-.5031z"/><path d="m51.5535 29.7349v-3.271h-1.5098v3.271c0 1.2485 1.0159 2.2644 2.2644 2.2644.2647 0 .5186-.0459.7549-.1299-.8784-.3115-1.5095-1.1504-1.5095-2.1345z"/><path d="m42.9988 29.7349v-3.271h-1.5098v3.271c0 1.2485 1.0159 2.2644 2.2644 2.2644.2647 0 .5186-.0459.7549-.1299-.8787-.3115-1.5095-1.1504-1.5095-2.1345z"/><path d="m35.7019 13.3809c-1.2485 0-2.2644 1.0156-2.2644 2.2644v7.5483c0 1.2485 1.0159 2.2644 2.2644 2.2644 1.2488 0 2.2646-1.0159 2.2646-2.2644v-7.5483c0-1.2486-1.0158-2.2644-2.2646-2.2644z"/></g><path d="m48.0307 2.81348c-4.9943 0-9.0578 4.06322-9.0578 9.05782 0 .2779.2253.5032.5032.5032h17.1093c.2781 0 .5034-.2253.5034-.5032 0-4.9946-4.0634-9.05782-9.0581-9.05782zm-3.0192 6.03856c0 .55493-.4514 1.00635-1.0064 1.00635-.5549 0-1.0063-.45142-1.0063-1.00635s.4514-1.00634 1.0063-1.00634c.555 0 1.0064.45141 1.0064 1.00634zm6.0385 0c0-.55493.4517-1.00634 1.0066-1.00634.555 0 1.0064.45141 1.0064 1.00634s-.4514 1.00635-1.0064 1.00635c-.5549 0-1.0066-.45142-1.0066-1.00635z" fill="#78d67f"/><path d="m40.9858 11.8713c0-4.65427 3.5288-8.49947 8.0515-9.00167-.3305-.03662-.6662-.05615-1.0066-.05615-4.9943 0-9.0578 4.06322-9.0578 9.05782 0 .2779.2253.5032.5032.5032h2.0129c-.2778 0-.5032-.2253-.5032-.5032z" fill="#65d06c"/></g></svg>