<svg fill="none" height="30" viewBox="0 0 60 30" width="60" xmlns="http://www.w3.org/2000/svg" xmlns:xlink="http://www.w3.org/1999/xlink"><filter id="a" color-interpolation-filters="sRGB" filterUnits="userSpaceOnUse" height="17" width="16" x="37" y="7"><feFlood flood-opacity="0" result="BackgroundImageFix"/><feBlend in="SourceGraphic" in2="BackgroundImageFix" mode="normal" result="shape"/><feColorMatrix in="SourceAlpha" result="hardAlpha" type="matrix" values="0 0 0 0 0 0 0 0 0 0 0 0 0 0 0 0 0 0 127 0"/><feOffset dy="1"/><feGaussianBlur stdDeviation=".5"/><feComposite in2="hardAlpha" k2="-1" k3="1" operator="arithmetic"/><feColorMatrix type="matrix" values="0 0 0 0 0 0 0 0 0 0 0 0 0 0 0 0 0 0 0.5 0"/><feBlend in2="shape" mode="normal" result="effect1_innerShadow"/></filter><filter id="b" color-interpolation-filters="sRGB" filterUnits="userSpaceOnUse" height="17" width="16" x="7" y="7"><feFlood flood-opacity="0" result="BackgroundImageFix"/><feBlend in="SourceGraphic" in2="BackgroundImageFix" mode="normal" result="shape"/><feColorMatrix in="SourceAlpha" result="hardAlpha" type="matrix" values="0 0 0 0 0 0 0 0 0 0 0 0 0 0 0 0 0 0 127 0"/><feOffset dy="1"/><feGaussianBlur stdDeviation=".5"/><feComposite in2="hardAlpha" k2="-1" k3="1" operator="arithmetic"/><feColorMatrix type="matrix" values="0 0 0 0 0 0 0 0 0 0 0 0 0 0 0 0 0 0 0.5 0"/><feBlend in2="shape" mode="normal" result="effect1_innerShadow"/></filter><mask height="30" maskUnits="userSpaceOnUse" width="30" x="30" y="0"><path d="m30 0h30v30h-30z" fill="#c4c4c4"/></mask><mask height="30" maskUnits="userSpaceOnUse" width="30" x="0" y="0"><path d="m0 0h30v30h-30z" fill="#c4c4c4"/></mask><g filter="url(#a)"><path d="m43.8292 18.8459c-.0955.0989-.2257.1541-.361.1541s-.2655-.0552-.361-.1541l-2.8828-2.9707c-.2992-.3082-.2992-.808 0-1.1157l.361-.372c.2992-.3082.7838-.3082 1.083 0l1.7998 1.8545 4.8634-5.0108c.2993-.3083.7843-.3083 1.083 0l.361.372c.2992.3082.2992.8079 0 1.1157z" fill="#333"/></g><g fill="#333" filter="url(#b)"><path d="m14.9997 21c-1.2373-.0015-2.4234-.4936-3.2983-1.3684-.8749-.8749-1.367-2.0611-1.3684-3.2983v-6c0-.1333.0087-.2667.02-.39468-.59885.25728-1.10926.68428-1.46823 1.22828s-.55078 1.1813-.55176 1.8331v6.6666c.00106.8837.35259 1.731.97748 2.3559s1.47211.9764 2.35581.9775h4c.6518-.001 1.2891-.1928 1.8331-.5518s.971-.8694 1.2283-1.4682c-.1334.0113-.2614.02-.3947.02zm6.1033-11.81872-1.5227-1.57266c-.1676-.16977-.3642-.30817-.5806-.40867v2.46667h2.44c-.0875-.17762-.201-.34119-.3367-.48534z"/><path d="m18.333 9.66662c0 .17681.0702.34638.1953.47138.125.125.2946.1953.4714.1953h2.644c-.0491-.43289-.2391-.83765-.5407-1.15201l-1.5227-1.57267c-.3331-.33763-.7749-.54642-1.2473-.58933z"/><path d="m17.0003 9.66667v-2.66667h-2c-.8837.00106-1.7309.35259-2.3558.97748s-.9764 1.47212-.9775 2.35582v6c.0011.8838.3526 1.731.9775 2.3559s1.4721.9764 2.3558.9775h3.3334c.8837-.0011 1.7309-.3526 2.3558-.9775s.9764-1.4721.9775-2.3559v-4.6666h-2.6667c-.5304 0-1.0391-.2107-1.4142-.5858s-.5858-.8838-.5858-1.41423z"/></g></svg>