<svg fill="none" height="10" viewBox="0 0 20 10" width="20" xmlns="http://www.w3.org/2000/svg" xmlns:xlink="http://www.w3.org/1999/xlink"><clipPath id="a"><path d="m10 0h10v10h-10z"/></clipPath><clipPath id="b"><path d="m0 0h10v10h-10z"/></clipPath><g clip-path="url(#a)"><path d="m15.9162 5.00827 3.8938-3.89392c.2534-.253279.2534-.662803 0-.916087-.2533-.2532831-.6628-.2532831-.9161 0l-3.8939 3.893917-3.8939-3.893917c-.2534-.2532831-.6628-.2532831-.916 0-.25345.253284-.25345.662808 0 .916087l3.8938 3.89392-3.8938 3.89392c-.25345.25329-.25345.66281 0 .9161.1262.12634.2921.18981.458.18981.1658 0 .3317-.06347.458-.18981l3.8939-3.89392 3.8939 3.89392c.1263.12634.2922.18981.458.18981.1659 0 .3317-.06347.4581-.18981.2534-.25329.2534-.66281 0-.9161z" fill="#807a9f"/></g><g clip-path="url(#b)"><path d="m5.91616 5.00827 3.89381-3.89392c.25343-.253279.25343-.662803 0-.916087-.25328-.2532831-.66281-.2532831-.91609 0l-3.89393 3.893917-3.89381-3.893917c-.253398-.2532831-.662804-.2532831-.916088 0-.2534026.253284-.2534026.662808 0 .916087l3.893808 3.89392-3.893808 3.89392c-.2534026.25329-.2534026.66281 0 .9161.126227.12634.292196.18981.458046.18981.165851 0 .331701-.06347.458042-.18981l3.89381-3.89392 3.89393 3.89392c.12635.12634.2922.18981.45805.18981s.3317-.06347.45804-.18981c.25343-.25329.25343-.66281 0-.9161z" fill="#423d5b"/></g></svg>