<svg fill="none" height="18" viewBox="0 0 5 18" width="5" xmlns="http://www.w3.org/2000/svg"><path d="m4.3522 4.66416c0 1.296-.048 2.504-.144 3.624s-.224 2.25604-.384 3.40804h-2.736c-.160005-1.152-.296005-2.28804-.408005-3.40804-.096-1.12-.144-2.328-.144-3.624v-4.295996h3.816005zm.312 10.44004c0 .704-.232 1.248-.696 1.632-.448.384-.96.576-1.536.576s-1.096-.192-1.560005-.576c-.448-.384-.672-.928-.672-1.632s.224-1.248.672-1.632c.464005-.384.984005-.576 1.560005-.576s1.088.192 1.536.576c.464.384.696.928.696 1.632z" fill="#6a0303"/></svg>