<svg fill="none" height="16" viewBox="0 0 16 16" width="16" xmlns="http://www.w3.org/2000/svg" xmlns:xlink="http://www.w3.org/1999/xlink"><clipPath id="a"><path d="m0 0h16v16h-16z"/></clipPath><g clip-path="url(#a)"><path d="m9.46586 8.01314 6.23014-6.23027c.4054-.40525.4054-1.060493 0-1.465746-.4053-.4052537-1.0605-.4052537-1.4658 0l-6.23027 6.230276-6.2301-6.230276c-.40544-.4052537-1.060493-.4052537-1.465747 0-.405444.405253-.405444 1.060496 0 1.465746l6.230097 6.23027-6.230097 6.23026c-.405444.4053-.405444 1.0605 0 1.4658.201963.2021.467513.3037.732877.3037.26536 0 .53072-.1016.73287-.3037l6.2301-6.23031 6.23027 6.23031c.2022.2021.4675.3037.7329.3037.2653 0 .5307-.1016.7329-.3037.4054-.4053.4054-1.0605 0-1.4658z" fill="#6a0303"/></g></svg>