<svg fill="none" height="14" viewBox="0 0 14 14" width="14" xmlns="http://www.w3.org/2000/svg" xmlns:xlink="http://www.w3.org/1999/xlink"><linearGradient id="a" gradientUnits="userSpaceOnUse" x1="7.00016" x2="7.00001" y1="0" y2="14.9333"><stop offset=".144954" stop-color="#c8c0f8"/><stop offset="1" stop-color="#585181"/></linearGradient><clipPath id="b"><path d="m0 0h14v14h-14z"/></clipPath><g clip-path="url(#b)"><path d="m11.0833 14h-.5833c-.1547 0-.3031-.0615-.4125-.1709-.10938-.1094-.17083-.2577-.17083-.4124s.06145-.3031.17083-.4125c.1094-.1094.2578-.1709.4125-.1709h.5833c.4642 0 .9093-.1843 1.2375-.5125s.5125-.7733.5125-1.2375v-.5833c0-.1547.0615-.3031.1709-.4125.1094-.10938.2578-.17083.4125-.17083s.303.06145.4124.17083c.1094.1094.1709.2578.1709.4125v.5833c-.0009.7733-.3085 1.5146-.8553 2.0614s-1.2881.8544-2.0614.8553zm2.9167-10.5v-.58333c-.0009-.77327-.3085-1.51459-.8553-2.061375-.5468-.546781-1.2881-.85436875-2.0614-.855295h-.5833c-.1547 0-.3031.0614582-.4125.170854-.10938.109397-.17083.25777-.17083.412479 0 .15471.06145.303083.17083.412479.1094.109398.2578.170858.4125.170858h.5833c.4642 0 .9093.18437 1.2375.51256s.5125.77331.5125 1.23744v.58333c0 .15471.0615.30308.1709.41248.1094.10939.2578.17085.4125.17085s.303-.06146.4124-.17085c.1094-.1094.1709-.25777.1709-.41248zm-9.91667 9.9167c0-.1547-.06146-.3031-.17085-.4125-.1094-.1094-.25777-.1709-.41248-.1709h-.58333c-.46413 0-.90925-.1843-1.23744-.5125s-.51256-.7733-.51256-1.2375v-.5833c0-.1547-.06146-.3031-.170858-.4125-.109396-.10938-.257769-.17083-.412479-.17083-.154709 0-.303082.06145-.412479.17083-.1093958.1094-.170854.2578-.170854.4125v.5833c.00092625.7733.308514 1.5146.855295 2.0614.546785.5468 1.288105.8544 2.061375.8553h.58333c.15471 0 .30308-.0615.41248-.1709.10939-.1094.17085-.2577.17085-.4124zm-2.91666-9.9167v-.58333c0-.46413.18437-.90925.51256-1.23744s.77331-.51256 1.23744-.51256h.58333c.15471 0 .30308-.06146.41248-.170858.10939-.109396.17085-.257769.17085-.412479 0-.154709-.06146-.303082-.17085-.412479-.1094-.1093958-.25777-.170854-.41248-.170854h-.58333c-.77327.00092625-1.51459.308514-2.061375.855295-.546781.546785-.85436875 1.288105-.855295 2.061375v.58333c0 .15471.0614582.30308.170854.41248.109397.10939.25777.17085.412479.17085.15471 0 .303083-.06146.412479-.17085.109398-.1094.170858-.25777.170858-.41248zm8.16666 3.5c0-.46149-.13684-.91262-.39324-1.29633-.25638-.38372-.6208-.68279-1.04716-.85939s-.89552-.22281-1.34814-.13278-.86838.31226-1.19471.63858c-.32632.32633-.54855.74209-.63858 1.19471s-.04382.92178.13278 1.34814.47567.79078.85939 1.04716c.38371.2564.83484.39324 1.29633.39324.61884 0 1.21233-.24583 1.64992-.68341.43758-.43759.68341-1.03108.68341-1.64992z" fill="url(#a)"/></g></svg>