<svg fill="none" height="14" viewBox="0 0 42 14" width="42" xmlns="http://www.w3.org/2000/svg" xmlns:xlink="http://www.w3.org/1999/xlink"><linearGradient id="a"><stop offset=".144954" stop-color="#c8c0f8"/><stop offset="1" stop-color="#585181"/></linearGradient><linearGradient id="b" gradientUnits="userSpaceOnUse" x1="34.9999" x2="34.9997" xlink:href="#a" y1="0" y2="14.9333"/><linearGradient id="c" gradientUnits="userSpaceOnUse" x1="20.9993" x2="20.9992" xlink:href="#a" y1="-.001526" y2="14.9328"/><linearGradient id="d" gradientUnits="userSpaceOnUse" x1="6.99691" x2="6.99676" xlink:href="#a" y1="0" y2="14.941"/><clipPath id="e"><path d="m28 0h14v14h-14z"/></clipPath><clipPath id="f"><path d="m14 0h14v14h-14z"/></clipPath><clipPath id="g"><path d="m0 0h14v14h-14z"/></clipPath><g clip-path="url(#e)"><path d="m33.8728 11.6667c-.4745-.0005-.9294-.1892-1.2649-.5247-.3356-.3356-.5243-.7905-.5247-1.265 0-.15471-.0615-.30308-.1709-.41248s-.2578-.17085-.4125-.17085-.303.06145-.4124.17085-.1709.25777-.1709.41248v.07175c.0195.77135.3394 1.50455.8917 2.04335.5522.5389 1.2931.8407 2.0646.8412h.5437v.5834c0 .1547.0615.303.1709.4124s.2577.1709.4124.1709.3031-.0615.4125-.1709.1709-.2577.1709-.4124v-.5834h.5436c.7016-.0007 1.38-.2509 1.9141-.7059.534-.455.8888-1.085 1.0011-1.7776.1122-.6925-.0256-1.40236-.3886-2.00268-.3631-.60032-.9278-1.05197-1.5932-1.2742l-1.477-.49292v-4.24667h.5436c.4745.00047.9295.18917 1.265.5247.3355.33552.5242.79046.5247 1.26497 0 .15471.0615.30308.1709.41248s.2577.17085.4124.17085.3031-.06145.4125-.17085.1709-.25777.1709-.41248v-.07175c-.0195-.77132-.3394-1.50454-.8917-2.04338-.5522-.53884-1.2931-.84069-2.0647-.8412h-.5436v-.583337c0-.154709-.0615-.303082-.1709-.412479-.1094-.1093958-.2578-.170854-.4125-.170854s-.303.0614582-.4124.170854c-.1094.109397-.1709.25777-.1709.412479v.583337h-.5437c-.7015.00075-1.38.25097-1.914.70593-.534.45497-.8889 1.08503-1.0011 1.77756-.1122.69254.0255 1.4024.3886 2.00272s.9278 1.05197 1.5932 1.2742l1.477.49292v4.2467zm1.7104-3.85762 1.1083.36984c.4032.1342.7456.40753.9657.77106.2201.36352.3037.79352.2358 1.21302s-.2829.8012-.6065 1.0767-.7347.4268-1.1597.427h-.5436zm-2.275-1.988c-.4033-.13421-.7456-.40753-.9657-.77106-.2202-.36352-.3037-.79352-.2358-1.21304s.2829-.80118.6065-1.07668.7347-.42685 1.1596-.42697h.5437v3.85759z" fill="url(#b)"/></g><g clip-path="url(#f)"><path d="m14.1692 4.98803c-.1257-.23315-.1839-.49671-.1681-.76111.0157-.2644.1049-.51917.2574-.73573.2492-.36568.583-.66584.973-.875l4.3756-2.277329c.43-.223632.9076-.34038688 1.3924-.34038688.4847 0 .9623.11675488 1.3924.34038688l4.375 2.279079c.39.20916.7238.50932.973.875.1525.21656.2416.47133.2574.73573s-.0425.52796-.1682.76111c-.1353.25598-.3382.46993-.5867.61856-.2485.14862-.533.22622-.8226.22435h-10.8407c-.2898.00181-.5745-.076-.8232-.22495-.2486-.14895-.4515-.36331-.5867-.61971zm13.2469 7.84467c0-.3094-.1229-.6062-.3417-.825s-.5155-.3417-.8249-.3417v-4.66664h-1.1667v4.66664h-1.75v-4.66664h-1.1667v4.66664h-2.3333v-4.66664h-1.1667v4.66664h-1.75v-4.66664h-1.1666v4.66664c-.3094 0-.6062.1229-.825.3417s-.3417.5156-.3417.825c-.1547 0-.3031.0615-.4125.1708-.1094.1094-.1708.2578-.1708.4125s.0614.3031.1708.4125.2578.1709.4125.1709h12.8333c.1548 0 .3031-.0615.4125-.1709s.1709-.2578.1709-.4125-.0615-.3031-.1709-.4125c-.1094-.1093-.2577-.1708-.4125-.1708z" fill="url(#c)"/></g><g clip-path="url(#g)" fill="url(#d)"><path d="m8.167 0h2.9167c.7732.00092625 1.5146.308515 2.0613.855295.5468.546785.8544 1.288105.8553 2.061375v2.91666c0 .15471-.0614.30309-.1708.41248-.1094.1094-.2578.17086-.4125.17086s-.3031-.06146-.4125-.17086c-.1094-.10939-.1708-.25777-.1708-.41248v-2.91666c-.001-.25987-.0609-.51614-.175-.74959l-11.662618 11.66202c-.053811.0557-.118178.1001-.189347.1307s-.147714.0467-.225169.0473c-.077455.0007-.154268-.014-.225957-.0434-.07169-.0293-.13682-.0726-.191591-.1274-.05477-.0548-.0980846-.1199-.1274151-.1916-.02933055-.0717-.04408987-.1485-.04341681-.2259.00067306-.0775.01676502-.154.04733691-.2252.0305719-.0712.075012-.1355.130726-.1893l11.661951-11.66263c-.2334-.11417-.4897-.174-.7495-.175h-2.9167c-.15471 0-.30309-.06146-.41248-.170858-.1094-.109396-.17086-.257769-.17086-.412479 0-.154709.06146-.303082.17086-.412479.10939-.1093958.25777-.170854.41248-.170854z"/><g clip-rule="evenodd" fill-rule="evenodd"><path d="m4.79651 5.44001c-.38372.25639-.83485.39324-1.29633.39324-.61884 0-1.21234-.24584-1.64992-.68342-.43759-.43759-.68342-1.03108-.68342-1.64992 0-.46149.13685-.91261.39324-1.29633.25639-.38371.62081-.68278 1.04717-.85939.42636-.1766.89551-.22281 1.34814-.13278.45262.09004.86838.31227 1.1947.63859s.54855.74208.63858 1.1947c.09004.45263.04383.92178-.13278 1.34814-.1766.42636-.47567.79078-.85938 1.04717zm-.64817-2.91014c-.19186-.1282-.41742-.19662-.64816-.19662-.30942 0-.60617.12291-.82496.34171-.2188.21879-.34171.51553-.34171.82495 0 .23075.06842.45631.19662.64817.12819.19186.3104.34139.52358.42969.21318.08831.44776.11141.67407.06639.22631-.04501.43419-.15613.59735-.31929s.27428-.37104.31929-.59735c.04502-.22631.02192-.46089-.06639-.67407-.0883-.21318-.23783-.39539-.42969-.52358z"/><path d="m9.20384 8.55982c.38372-.25639.83486-.39324 1.29636-.39324.6188 0 1.2123.24583 1.6499.68342.4376.43758.6834 1.03107.6834 1.6499 0 .4615-.1368.9126-.3932 1.2963-.2564.3838-.6208.6828-1.0472.8594s-.8955.2228-1.3481.1328c-.45266-.09-.86842-.3122-1.19474-.6386-.32632-.3263-.54855-.7421-.63858-1.1947-.09004-.4526-.04383-.9218.13278-1.34811.1766-.42637.47567-.79078.85938-1.04717zm.64817 2.91018c.19189.1282.41739.1966.64819.1966.3094 0 .6061-.1229.8249-.3417s.3417-.5156.3417-.825c0-.2307-.0684-.4563-.1966-.64815-.1282-.19186-.3104-.34139-.5236-.4297-.2131-.0883-.4477-.1114-.674-.06639-.2263.04502-.43422.15613-.59738.3193-.16316.16316-.27428.37104-.31929.59734-.04502.2263-.02192.4609.06639.6741.0883.2132.23783.3954.42969.5236z"/></g></g></svg>