<svg fill="none" height="14" viewBox="0 0 14 14" width="14" xmlns="http://www.w3.org/2000/svg" xmlns:xlink="http://www.w3.org/1999/xlink"><linearGradient id="a" gradientUnits="userSpaceOnUse" x1="-1.27268" x2="-1.27277" y1="-4.6664" y2="12.8334"><stop offset=".144954" stop-color="#c8c0f8"/><stop offset="1" stop-color="#585181"/></linearGradient><path d="m11.0833 1.16675h-8.16663c-.77327.00092-1.51459.30851-2.061375.85529-.546781.54678-.85436875 1.28811-.855295 2.06138v5.83333c.00092625.77325.308514 1.51455.855295 2.06135.546785.5468 1.288105.8544 2.061375.8553h8.16663c.7733-.0009 1.5146-.3085 2.0614-.8553s.8544-1.2881.8553-2.06135v-5.83333c-.0009-.77327-.3085-1.5146-.8553-2.06138s-1.2881-.85437-2.0614-.85529zm-8.16663 5.25h1.16666c.15471 0 .30309.06146.41248.17085.1094.1094.17086.25777.17086.41248s-.06146.30308-.17086.41248c-.10939.1094-.25777.17086-.41248.17086h-1.16666c-.15471 0-.30309-.06146-.41248-.17086-.1094-.1094-.17086-.25777-.17086-.41248s.06146-.30308.17086-.41248c.10939-.10939.25777-.17085.41248-.17085zm4.66666 4.08335h-4.66666c-.15471 0-.30309-.0615-.41248-.1709-.1094-.1094-.17086-.2577-.17086-.41245 0-.15471.06146-.30308.17086-.41248.10939-.1094.25777-.17085.41248-.17085h4.66666c.15471 0 .30309.06145.41248.17085.1094.1094.17086.25777.17086.41248 0 .15475-.06146.30305-.17086.41245-.10939.1094-.25777.1709-.41248.1709zm3.49997 0h-1.16663c-.15471 0-.30309-.0615-.41248-.1709-.1094-.1094-.17086-.2577-.17086-.41245 0-.15471.06146-.30308.17086-.41248.10939-.1094.25777-.17085.41248-.17085h1.16663c.1547 0 .3031.06145.4125.17085s.1709.25777.1709.41248c0 .15475-.0615.30305-.1709.41245s-.2578.1709-.4125.1709zm0-2.91668h-4.66663c-.15471 0-.30309-.06146-.41248-.17086-.1094-.1094-.17086-.25777-.17086-.41248s.06146-.30308.17086-.41248c.10939-.10939.25777-.17085.41248-.17085h4.66663c.1547 0 .3031.06146.4125.17085.1094.1094.1709.25777.1709.41248s-.0615.30308-.1709.41248-.2578.17086-.4125.17086z" fill="url(#a)"/></svg>