<svg fill="none" height="14" viewBox="0 0 14 14" width="14" xmlns="http://www.w3.org/2000/svg" xmlns:xlink="http://www.w3.org/1999/xlink"><linearGradient id="a" gradientUnits="userSpaceOnUse" x1="6.99967" x2="6.99955" y1=".583252" y2="14.2721"><stop offset=".144954" stop-color="#c8c0f8"/><stop offset="1" stop-color="#585181"/></linearGradient><clipPath id="b"><path d="m-.000488 0h14v14h-14z"/></clipPath><g clip-path="url(#b)" fill="url(#a)"><path d="m13.5656 1.98967-5.32817 5.32875c-.32875.32743-.77384.51127-1.23784.51127-.46399 0-.90908-.18384-1.23783-.51127l-5.328166-5.32875c.258112-.42798.622156-.78223 1.057016-1.028575.43486-.246346.92586-.376478 1.42565-.377843h8.16664c.4998.001365.9908.131497 1.4257.377843.4348.246345.7989.600595 1.057 1.028575z"/><path d="m9.06218 8.14325 4.91052-4.9105c.003.03424.0075.06727.0119.09996.0075.05531.0149.10965.0149.16721v6.99998c-.0009.7733-.3085 1.5146-.8553 2.0614s-1.2881.8544-2.0614.8553h-8.16662c-.77327-.0009-1.51459-.3085-2.061373-.8553-.546781-.5468-.85436903-1.2881-.85529528-2.0614v-6.99998c0-.05756.00737418-.1119.01488058-.16721.0044364-.03269.0089191-.06572.0119528-.09996l4.9105049 4.9105c.54753.54615 1.28931.85286 2.06266.85286s1.51514-.30671 2.06267-.85286z"/></g></svg>