<svg fill="none" height="14" viewBox="0 0 42 14" width="42" xmlns="http://www.w3.org/2000/svg" xmlns:xlink="http://www.w3.org/1999/xlink"><linearGradient id="a"><stop offset=".144954" stop-color="#c8c0f8"/><stop offset="1" stop-color="#585181"/></linearGradient><linearGradient id="b" gradientUnits="userSpaceOnUse" x1="-1.27203" x2="-1.27216" xlink:href="#a" y1="-7.0006" y2="14.0016"/><linearGradient id="c" gradientUnits="userSpaceOnUse" x1="12.7273" x2="12.7272" xlink:href="#a" y1="-6.99978" y2="14"/><linearGradient id="d" gradientUnits="userSpaceOnUse" x1="35.0002" x2="35" xlink:href="#a" y1="0" y2="14.9333"/><clipPath id="e"><path d="m0 0h14v14h-14z"/></clipPath><clipPath id="f"><path d="m14 0h14v14h-14z"/></clipPath><g clip-path="url(#e)" fill="url(#b)"><path d="m8.07632 10.0724-1.90283 1.9029c-.55246.5377-1.29441.8362-2.06532.8311-.77091-.0052-1.50879-.3137-2.054-.8587-.54521-.5451-.85389-1.2829-.85928-2.0538-.00538-.77091.29298-1.51294.83052-2.06555l1.90283-1.90459c.10938-.10945.1708-.25788.17074-.41262-.00005-.15474-.06158-.30312-.17103-.4125-.10946-.10938-.25788-.1708-.41263-.17074-.15474.00005-.30312.06157-.4125.17103l-1.90225 1.90458c-.768672.76907-1.20035509 1.81198-1.20008159 2.89933.0002735 1.08736.43248159 2.13006 1.20154159 2.89876.76906.7686 1.81198 1.2003 2.89932 1.2 1.08735-.0002 2.13005-.4324 2.89872-1.2015l1.90284-1.9028c.10625-.1101.16505-.2574.16372-.4104-.00133-.1529-.06268-.2992-.17083-.4074-.10816-.10812-.25446-.16947-.40741-.17079-.15295-.00133-.3003.05746-.41032.16369zm4.72438-8.87014c-.3795-.382187-.8312-.68525-1.3288-.891623-.4975-.206373-1.0311-.31195327-1.56974-.31062263-.53838-.00143017-1.0717.10387863-1.56913.30983863-.49742.205959-.94909.508482-1.32887.890077l-1.90575 1.90342c-.10946.10938-.17098.25776-.17104.4125-.00005.15474.06136.30317.17074.41262.10938.10946.25777.17098.41251.17104.15474.00005.30316-.06137.41262-.17075l1.90458-1.90283c.27157-.2732.59464-.48982.95051-.63731.35586-.1475.73744-.22293 1.12266-.22194.58001.00019 1.14691.17234 1.62911.49467.4821.32233.8579.78038 1.0798 1.31624.2219.53587.2799 1.12549.1668 1.69433-.1132.56884-.3925 1.09136-.8025 1.50151l-1.9029 1.90284c-.10943.10945-.17093.25791-.17093.4127 0 .1548.0615.30325.17093.41271.1095.10946.2579.17095.4127.17095s.3033-.06149.4127-.17095l1.9029-1.90167c.7677-.76936 1.1989-1.81177 1.1991-2.89863s-.4306-2.12945-1.198-2.89912z"/><path d="m8.33733 4.83762-3.5 3.5c-.05572.05381-.10016.11818-.13073.18934-.03057.07117-.04666.14772-.04734.22517-.00067.07746.01409.15427.04342.22596s.07265.13682.12742.19159.1199.09809.19159.12742.1485.04409.22595.04341c.07746-.00067.154-.01676.22517-.04733.07117-.03058.13554-.07502.18935-.13073l3.5-3.5c.10626-.11002.16505-.25737.16372-.41032-.00132-.15295-.06267-.29925-.17083-.40741-.10815-.10815-.25446-.1695-.40741-.17083s-.3003.05747-.41031.16373z"/></g><g clip-path="url(#f)"><path d="m18.375 7.58333c-.5192 0-1.0267-.15395-1.4584-.44239s-.7681-.69841-.9668-1.17806c-.1987-.47966-.2506-1.00746-.1494-1.51666.1013-.5092.3513-.97693.7184-1.34404.3672-.36711.8349-.61712 1.3441-.71841.5092-.10128 1.037-.0493 1.5166.14938.4797.19868.8897.53513 1.1781.96681s.4424.9392.4424 1.45837c-.0008.69596-.2776 1.36319-.7697 1.85531-.4921.49211-1.1593.76892-1.8553.76969zm3.7917 6.41667h-7.5834c-.1547 0-.303-.0615-.4124-.1709-.1094-.1093-.1709-.2577-.1709-.4124v-.2917c0-1.1603.4609-2.2731 1.2814-3.0936.8205-.82046 1.9333-1.2814 3.0936-1.2814s2.2731.46094 3.0936 1.2814c.8205.8205 1.2814 1.9333 1.2814 3.0936v.2917c0 .1547-.0615.3031-.1709.4124-.1094.1094-.2577.1709-.4124.1709zm2.0416-8.75c-.5191 0-1.0267-.15395-1.4583-.44239-.4317-.28844-.7682-.69841-.9669-1.17806-.1986-.47966-.2506-1.00746-.1493-1.51666s.3513-.97693.7184-1.344044c.3671-.367113.8348-.61712 1.344-.7184062s1.037-.04930242 1.5167.1493772c.4796.19868.8896.535133 1.178.966813.2885.43168.4424.9392.4424 1.45837-.0007.69596-.2775 1.36319-.7697 1.8553-.4921.49212-1.1593.76893-1.8553.7697zm-.8289 1.17892c-.5433.07289-1.0657.25719-1.5344.54136-.4688.28417-.8738.66208-1.1897 1.11005 1.3071.59364 2.3342 1.66963 2.8664 3.00297h3.895c.1547 0 .303-.0614.4124-.1708s.1709-.2578.1709-.4125v-.0222c-.0006-.58143-.1252-1.15607-.3656-1.68554-.2403-.52946-.5909-1.00156-1.0282-1.38477s-.9514-.66872-1.5078-.83747-1.1425-.21686-1.719-.1411z" fill="url(#c)"/></g><path d="m39.0833 2.33333h-2.3333v-.58333c0-.46413-.1844-.909248-.5126-1.237437s-.7733-.512563-1.2374-.512563-.9092.184374-1.2374.512563-.5126.773307-.5126 1.237437v.58333h-2.3333c-.7733.00093-1.5146.30852-2.0614.8553s-.8544 1.28811-.8553 2.06137v5.8333c.0009.7733.3085 1.5146.8553 2.0614s1.2881.8544 2.0614.8553h8.1666c.7733-.0009 1.5146-.3085 2.0614-.8553s.8544-1.2881.8553-2.0614v-5.8333c-.0009-.77326-.3085-1.51459-.8553-2.06137s-1.2881-.85437-2.0614-.8553zm-5.25 8.16667c0 .1547-.0614.3031-.1708.4125s-.2578.1708-.4125.1708h-2.9167c-.1547 0-.303-.0614-.4124-.1708s-.1709-.2578-.1709-.4125v-4.66667c0-.15471.0615-.30308.1709-.41248.1094-.10939.2577-.17085.4124-.17085h2.9167c.1547 0 .3031.06146.4125.17085.1094.1094.1708.25777.1708.41248zm1.1667-7c-.1547 0-.3031-.06146-.4125-.17085-.1094-.1094-.1708-.25777-.1708-.41248v-1.16667c0-.15471.0614-.30308.1708-.41248s.2578-.17085.4125-.17085.3031.06145.4125.17085.1708.25777.1708.41248v1.16667c0 .15471-.0614.30308-.1708.41248-.1094.10939-.2578.17085-.4125.17085zm3.5 7.5833h-2.3333c-.1547 0-.3031-.0614-.4125-.1708s-.1709-.2578-.1709-.4125.0615-.3031.1709-.4125c.1094-.10938.2578-.17083.4125-.17083h2.3333c.1547 0 .3031.06145.4125.17083.1094.1094.1708.2578.1708.4125s-.0614.3031-.1708.4125-.2578.1708-.4125.1708zm1.1667-2.3333h-3.5c-.1547 0-.3031-.06146-.4125-.17085-.1094-.1094-.1709-.25777-.1709-.41248s.0615-.30309.1709-.41248c.1094-.1094.2578-.17086.4125-.17086h3.5c.1547 0 .303.06146.4124.17086.1094.10939.1709.25777.1709.41248s-.0615.30308-.1709.41248c-.1094.10939-.2577.17085-.4124.17085zm0-2.33333h-3.5c-.1547 0-.3031-.06146-.4125-.17086-.1094-.10939-.1709-.25777-.1709-.41248s.0615-.30308.1709-.41248c.1094-.10939.2578-.17085.4125-.17085h3.5c.1547 0 .303.06146.4124.17085.1094.1094.1709.25777.1709.41248s-.0615.30309-.1709.41248c-.1094.1094-.2577.17086-.4124.17086zm-8.75 0h1.75v3.5h-1.75z" fill="url(#d)"/></svg>