<svg fill="none" height="14" viewBox="0 0 28 14" width="28" xmlns="http://www.w3.org/2000/svg" xmlns:xlink="http://www.w3.org/1999/xlink"><linearGradient id="a"><stop offset=".144954" stop-color="#c8c0f8"/><stop offset="1" stop-color="#585181"/></linearGradient><linearGradient id="b" gradientUnits="userSpaceOnUse" x1="21.0002" x2="21.0001" xlink:href="#a" y1="2.33325" y2="12.2888"/><linearGradient id="c" gradientUnits="userSpaceOnUse" x1="-1.27275" x2="-1.27284" xlink:href="#a" y1="-4.57685" y2="12.7883"/><clipPath id="d"><path d="m0 0h14v14h-14z"/></clipPath><path d="m25.0833 2.33325h-8.1666c-.7733.00093-1.5146.30852-2.0614.8553s-.8544 1.2881-.8553 2.06137v3.5c.0009.77326.3085 1.51458.8553 2.06138s1.2881.8544 2.0614.8553h8.1666c.7733-.0009 1.5146-.3085 2.0614-.8553s.8544-1.28812.8553-2.06138v-3.5c-.0009-.77327-.3085-1.51459-.8553-2.06137s-1.2881-.85437-2.0614-.8553zm-8.75 7.58334c-.1153 0-.2281-.03422-.324-.09831-.096-.0641-.1707-.15521-.2149-.2618-.0441-.10659-.0557-.22388-.0332-.33703.0225-.11316.0781-.2171.1597-.29868.0815-.08158.1855-.13714.2986-.15964.1132-.02251.2305-.01096.3371.03319s.1977.11892.2618.21485.0983.20871.0983.32408c0 .15471-.0615.30308-.1709.41248s-.2578.17086-.4125.17086zm0-4.66667c-.1153 0-.2281-.03421-.324-.09831-.096-.0641-.1707-.1552-.2149-.26179-.0441-.10659-.0557-.22388-.0332-.33704.0225-.11315.0781-.21709.1597-.29867.0815-.08158.1855-.13714.2986-.15965.1132-.02251.2305-.01096.3371.0332.1066.04415.1977.11891.2618.21484s.0983.20871.0983.32409c0 .1547-.0615.30308-.1709.41247-.1094.1094-.2578.17086-.4125.17086zm4.6667 4.08333c-.4615 0-.9126-.13685-1.2963-.39324s-.6828-.6208-.8594-1.04716-.2228-.89552-.1328-1.34814.3123-.86838.6386-1.19471c.3263-.32632.7421-.54855 1.1947-.63858s.9218-.04383 1.3481.13278c.4264.1766.7908.47567 1.0472.85939.2564.38371.3932.83484.3932 1.29633 0 .61884-.2458 1.21233-.6834 1.64991-.4376.43759-1.0311.68342-1.6499.68342zm4.6667.58334c-.1154 0-.2282-.03422-.3241-.09831-.0959-.0641-.1707-.15521-.2149-.2618-.0441-.10659-.0557-.22388-.0332-.33703.0225-.11316.0781-.2171.1597-.29868s.1855-.13714.2987-.15964c.1131-.02251.2304-.01096.337.03319s.1977.11892.2618.21485.0983.20871.0983.32408c0 .15471-.0615.30308-.1709.41248s-.2577.17086-.4124.17086zm0-4.66667c-.1154 0-.2282-.03421-.3241-.09831s-.1707-.1552-.2149-.26179c-.0441-.10659-.0557-.22388-.0332-.33704.0225-.11315.0781-.21709.1597-.29867s.1855-.13714.2987-.15965c.1131-.02251.2304-.01096.337.0332.1066.04415.1977.11891.2618.21484s.0983.20871.0983.32409c0 .1547-.0615.30308-.1709.41247-.1094.1094-.2577.17086-.4124.17086zm-3.5 1.75c0 .23074-.0685.45631-.1967.64816-.1281.19186-.3104.3414-.5235.4297-.2132.0883-.4478.1114-.6741.06639-.2263-.04502-.4342-.15613-.5974-.31929-.1631-.16317-.2742-.37105-.3192-.59736-.0451-.22631-.022-.46088.0663-.67407.0883-.21318.2379-.39538.4297-.52358.1919-.12819.4175-.19662.6482-.19662.3094 0 .6062.12292.825.34171.2187.21879.3417.51554.3417.82496z" fill="url(#b)"/><g clip-path="url(#d)" fill="url(#c)"><path d="m13.9999 4.98065h-3.7692c-1.1134 0-2.01921.90582-2.01921 2.01923s.90581 2.01923 2.01921 2.01923h3.7692v1.74999c0 1.1134-.9058 2.0192-2.0192 2.0192h-9.96153c-1.113414 0-2.01923104-.9058-2.01923104-2.0192v-7.53845c0-1.11341.90581704-2.01922 2.01923104-2.01922h9.96153c1.1134 0 2.0192.90581 2.0192 2.01922z"/><path clip-rule="evenodd" d="m9.01932 7.00005c0-.66806.54351-1.21154 1.21158-1.21154l3.7692.00003v2.42305h-3.7692c-.6681 0-1.21158-.54348-1.21158-1.21154zm1.21158.40384h.5384c.2231 0 .4039-.18082.4039-.40384 0-.22301-.1808-.40383-.4039-.40383h-.5384c-.2231 0-.40388.18082-.40388.40383 0 .22302.18078.40384.40388.40384z" fill-rule="evenodd"/></g></svg>