<svg fill="none" height="14" viewBox="0 0 98 14" width="98" xmlns="http://www.w3.org/2000/svg" xmlns:xlink="http://www.w3.org/1999/xlink"><linearGradient id="a"><stop offset=".144954" stop-color="#c8c0f8"/><stop offset="1" stop-color="#585181"/></linearGradient><linearGradient id="b" gradientUnits="userSpaceOnUse" x1="82.7259" x2="82.7258" xlink:href="#a" y1="-4.01175" y2="14.0004"/><linearGradient id="c" gradientUnits="userSpaceOnUse" x1="71.0909" x2="71.0908" xlink:href="#a" y1="-6.99978" y2="14"/><linearGradient id="d" gradientUnits="userSpaceOnUse" x1="63.0002" x2="63" xlink:href="#a" y1="0" y2="14.9333"/><linearGradient id="e" gradientUnits="userSpaceOnUse" x1="49.0001" x2="49" xlink:href="#a" y1="1" y2="13.8"/><linearGradient id="f" gradientUnits="userSpaceOnUse" x1="35.0002" x2="35.0001" xlink:href="#a" y1="2.33301" y2="12.2886"/><linearGradient id="g" gradientUnits="userSpaceOnUse" x1="20.6876" x2="20.6874" xlink:href="#a" y1="0" y2="15.9289"/><linearGradient id="h" gradientUnits="userSpaceOnUse" x1="7.00012" x2="6.99995" xlink:href="#a" y1="0" y2="14"/><clipPath id="i"><path d="m84 0h14v14h-14z"/></clipPath><clipPath id="j"><path d="m43 1h12v12h-12z"/></clipPath><g clip-path="url(#i)"><path d="m92.75 4.08377h-2.8175v-.92516c0-.23071-.0685-.45623-.1967-.64804s-.3104-.34131-.5235-.42959c-.2132-.08828-.4477-.11138-.674-.06639-.2262.045-.4341.15607-.5973.31918l-3.43 3.42942c-.328.32817-.5123.77321-.5123 1.23725s.1843.90908.5123 1.23725l3.43 3.42941c.1632.1631.3711.2742.5973.3192.2263.045.4608.0219.674-.0664.2131-.0883.3953-.2378.5235-.4296s.1967-.4173.1967-.648v-.92519h3.4009c.9279.00092 1.8176.36999 2.4738 1.02619.6562.6561 1.0252 1.5458 1.0262 2.4738 0 .1547.0614.3031.1708.4125s.2578.1708.4125.1708.3031-.0614.4125-.1708.1708-.2578.1708-.4125v-4.08333c-.0015-1.39191-.5551-2.72637-1.5394-3.7106-.9842-.98423-2.3187-1.53785-3.7106-1.5394z" fill="url(#b)"/></g><path d="m72 9.11492c0 2.92158 2.0091 4.88508 5 4.88508 3.6909 0 5-2.632 5-4.88508 0-7.61155-5.6382-9.0806631-5.6973-9.0946632-.2672-.0664995-.5563.0341245-.72.2519972-.1636.217874-.1727.510996-.0218.737616.0127.01925 1.25 1.90136 1.5546 3.56647.2609 1.42886.01 1.90311-.11 2.04048-.06.07-.1655.1505-.4373.1505-.0809 0-.1464-.01663-.2255-.1015-.4482-.4795-.4991-2.02998-.3927-2.9776.0318-.28787-.1345-.56174-.41-.67462-.2782-.11374-.5964-.03937-.7891.18113-.1127.12775-2.7509 3.17447-2.7509 5.92019z" fill="url(#c)"/><g fill="url(#d)"><path clip-rule="evenodd" d="m58.0503 2.05025c1.3127-1.312752 3.0932-2.05025 4.9497-2.05025s3.637.737498 4.9497 2.05025c1.3128 1.31276 2.0503 3.09323 2.0503 4.94975 0 1.85651-.7375 3.637-2.0503 4.9497-1.3127 1.3128-3.0932 2.0503-4.9497 2.0503-.0178 0-.0353-.0013-.0528-.0026s-.035-.0027-.0528-.0027c.0831-.2259.1178-.4668.1019-.707-.0159-.2403-.082-.4745-.1941-.6875-.1121-.2131-.2677-.4003-.4567-.5494s-.4072-.257-.6405-.3165c.0932-.2286.1365-.4746.127-.7213-.0095-.2468-.0715-.4887-.182-.7095-.1104-.2209-.2667-.41563-.4584-.57127-.1917-.15563-.4144-.26855-.6533-.33123.1079-.26528.1487-.55302.119-.83784-.0297-.28481-.1291-.55793-.2894-.79523-.1602-.2373-.3765-.43149-.6296-.56542s-.5353-.20348-.8216-.20251h-2.3334c-.1973.00197-.3928.03768-.5781.10558-.0002-.01662-.0014-.033-.0025-.04935-.0014-.01865-.0027-.03727-.0027-.05623 0-1.85652.7375-3.63699 2.0503-4.94975zm6.6997 7.28296c.1547 0 .303-.06143.4124-.17079.1094-.10939.1708-.25774.1708-.41242s-.0614-.30303-.1708-.41242l-1.5791-1.57908v-2.67517c0-.15471-.0614-.30308-.1708-.41248-.1094-.10939-.2578-.17085-.4125-.17085s-.3031.06146-.4125.17085c-.1094.1094-.1708.25777-.1708.41248v2.91667c0 .1547.0615.30305.1709.41242l1.75 1.75c.1094.10936.2577.17079.4124.17079z" fill-rule="evenodd"/><path d="m61.6625 13.8291c.1094-.1094.1708-.2577.1708-.4125 0-.1547-.0614-.303-.1708-.4124s-.2578-.1709-.4125-.1709h-4.6667c-.1547 0-.303.0615-.4124.1709s-.1709.2577-.1709.4124c0 .1548.0615.3031.1709.4125s.2577.1709.4124.1709h4.6667c.1547 0 .3031-.0615.4125-.1709z"/><path d="m60.0833 11.6666h-3.5c-.1547 0-.303-.0614-.4124-.1708s-.1709-.2578-.1709-.4125.0615-.3031.1709-.4125.2577-.1708.4124-.1708h3.5c.1547 0 .3031.0614.4125.1708s.1709.2578.1709.4125-.0615.3031-.1709.4125-.2578.1708-.4125.1708z"/><path d="m58.9167 9.33331h-2.3334c-.1547 0-.303-.06145-.4124-.17085-.1094-.10939-.1709-.25777-.1709-.41248s.0615-.30308.1709-.41248c.1094-.10939.2577-.17085.4124-.17085h2.3334c.1547 0 .303.06146.4124.17085.1094.1094.1709.25777.1709.41248s-.0615.30309-.1709.41248c-.1094.1094-.2577.17085-.4124.17085z"/></g><g clip-path="url(#j)"><path d="m49 4c-.3978 0-.7794.15804-1.0607.43934s-.4393.66284-.4393 1.06066v6c0 .3978.158.7794.4393 1.0607s.6629.4393 1.0607.4393.7794-.158 1.0607-.4393.4393-.6629.4393-1.0607v-6c0-.39782-.158-.77936-.4393-1.06066s-.6629-.43934-1.0607-.43934zm4.5-3c-.3978 0-.7794.15804-1.0607.43934s-.4393.66284-.4393 1.06066v9c0 .3978.158.7794.4393 1.0607s.6629.4393 1.0607.4393.7794-.158 1.0607-.4393.4393-.6629.4393-1.0607v-9c0-.39782-.158-.77936-.4393-1.06066s-.6629-.43934-1.0607-.43934zm-9 6c-.3978 0-.7794.15804-1.0607.43934s-.4393.66284-.4393 1.06066v3c0 .3978.158.7794.4393 1.0607s.6629.4393 1.0607.4393.7794-.158 1.0607-.4393.4393-.6629.4393-1.0607v-3c0-.39782-.158-.77936-.4393-1.06066s-.6629-.43934-1.0607-.43934z" fill="url(#e)"/></g><path d="m39.0833 2.33301h-8.1666c-.7733.00092-1.5146.30851-2.0614.85529s-.8544 1.28811-.8553 2.06137v3.5c.0009.77327.3085 1.51463.8553 2.06133.5468.5468 1.2881.8544 2.0614.8553h8.1666c.7733-.0009 1.5146-.3085 2.0614-.8553.5468-.5467.8544-1.28806.8553-2.06133v-3.5c-.0009-.77326-.3085-1.51459-.8553-2.06137s-1.2881-.85437-2.0614-.85529zm-8.75 7.58333c-.1153 0-.2281-.03421-.324-.09831-.096-.0641-.1707-.1552-.2149-.26179-.0441-.10659-.0557-.22388-.0332-.33704.0225-.11315.0781-.21709.1597-.29867.0815-.08158.1855-.13714.2986-.15965.1132-.02251.2305-.01095.3371.0332s.1977.11892.2618.21484c.0641.09593.0983.20872.0983.32409 0 .15471-.0615.30308-.1709.41248-.1094.10939-.2578.17085-.4125.17085zm0-4.66667c-.1153 0-.2281-.03421-.324-.0983-.096-.0641-.1707-.15521-.2149-.2618-.0441-.10659-.0557-.22388-.0332-.33703.0225-.11316.0781-.2171.1597-.29868.0815-.08158.1855-.13714.2986-.15964.1132-.02251.2305-.01096.3371.03319s.1977.11892.2618.21485.0983.20871.0983.32408c0 .15471-.0615.30308-.1709.41248s-.2578.17085-.4125.17085zm4.6667 4.08334c-.4615 0-.9126-.13685-1.2963-.39324s-.6828-.62081-.8594-1.04717-.2228-.89551-.1328-1.34814c.09-.45262.3123-.86838.6386-1.1947s.7421-.54855 1.1947-.63858c.4526-.09004.9218-.04383 1.3481.13278.4264.1766.7908.47567 1.0472.85938.2564.38372.3932.83484.3932 1.29633 0 .61884-.2458 1.21234-.6834 1.64992s-1.0311.68342-1.6499.68342zm4.6667.58333c-.1154 0-.2282-.03421-.3241-.09831s-.1707-.1552-.2149-.26179c-.0441-.10659-.0557-.22388-.0332-.33704.0225-.11315.0781-.21709.1597-.29867s.1855-.13714.2987-.15965c.1131-.02251.2304-.01095.337.0332s.1977.11892.2618.21484c.0641.09593.0983.20872.0983.32409 0 .15471-.0615.30308-.1709.41248-.1094.10939-.2577.17085-.4124.17085zm0-4.66667c-.1154 0-.2282-.03421-.3241-.0983-.0959-.0641-.1707-.15521-.2149-.2618-.0441-.10659-.0557-.22388-.0332-.33703.0225-.11316.0781-.2171.1597-.29868s.1855-.13714.2987-.15964c.1131-.02251.2304-.01096.337.03319s.1977.11892.2618.21485.0983.20871.0983.32408c0 .15471-.0615.30308-.1709.41248s-.2577.17085-.4124.17085zm-3.5 1.75c0 .23075-.0685.45631-.1967.64817-.1281.19186-.3104.34139-.5235.42969-.2132.08831-.4478.11141-.6741.06639-.2263-.04501-.4342-.15613-.5974-.31929-.1631-.16316-.2742-.37104-.3192-.59735-.0451-.22631-.022-.46089.0663-.67407s.2379-.39539.4297-.52358c.1919-.1282.4175-.19662.6482-.19662.3094 0 .6062.12291.825.34171.2187.21879.3417.51554.3417.82495z" fill="url(#f)"/><path d="m20.6875 0c-3.1361 0-5.6875 2.58789-5.6875 5.76882 0 3.94763 5.0898 7.81408 5.3065 8.05888.2035.2299.5589.2295.762 0 .2167-.2448 5.3065-4.11125 5.3065-8.05888-.0001-3.18093-2.5514-5.76882-5.6875-5.76882zm0 8.67127c-1.5779 0-2.8615-1.30203-2.8615-2.90245s1.2837-2.90243 2.8615-2.90243 2.8615 1.30204 2.8615 2.90246-1.2837 2.90242-2.8615 2.90242z" fill="url(#g)"/><path d="m10.5 3.5c0 1.933-1.567 3.5-3.5 3.5s-3.5-1.567-3.5-3.5 1.567-3.5 3.5-3.5 3.5 1.567 3.5 3.5z" fill="url(#h)"/><path d="m3.28939 8.83104c.98424-.98423 2.3187-1.53785 3.71061-1.53939 1.39191.00154 2.72637.55516 3.7106 1.53939.9842.98424 1.5379 2.31866 1.5394 3.71056 0 .1548-.0615.3031-.1709.4125s-.2577.1709-.4124.1709h-9.33337c-.15471 0-.30308-.0615-.41248-.1709-.10939-.1094-.17085-.2577-.17085-.4125.00154-1.3919.55516-2.72632 1.53939-3.71056z" fill="url(#h)"/></svg>