<svg fill="none" height="14" viewBox="0 0 14 14" width="14" xmlns="http://www.w3.org/2000/svg" xmlns:xlink="http://www.w3.org/1999/xlink"><linearGradient id="a" gradientUnits="userSpaceOnUse" x1="6.99984" x2="6.99984" y1="0" y2="14"><stop offset="0" stop-color="#ffd600"/><stop offset="1" stop-color="#edc700"/></linearGradient><clipPath id="b"><path d="m0 0h14v14h-14z"/></clipPath><g clip-path="url(#b)"><path d="m11.0832 4.914v-.83067c0-1.08296-.4302-2.12158-1.19601-2.88735-.76577-.765773-1.80438-1.19598-2.88735-1.19598s-2.12158.430207-2.88736 1.19598c-.76577.76577-1.19598 1.80439-1.19598 2.88735v.83067c-.51954.22674-.96174.59997-1.27254 1.07404-.31079.47407-.47671 1.02843-.47746 1.59529v3.49997c.00093.7733.30852 1.5146.8553 2.0614s1.28811.8544 2.06137.8553h5.83333c.7733-.0009 1.5146-.3085 2.0614-.8553s.8543-1.2881.8553-2.0614v-3.49997c-.0008-.56686-.1667-1.12122-.4775-1.59529s-.753-.8473-1.2725-1.07404zm-3.50003 5.00267c0 .15473-.06146.30303-.17085.41243-.1094.1094-.25777.1709-.41248.1709s-.30309-.0615-.41248-.1709c-.1094-.1094-.17086-.2577-.17086-.41243v-1.16667c0-.15471.06146-.30308.17086-.41248.10939-.1094.25777-.17085.41248-.17085s.30308.06145.41248.17085c.10939.1094.17085.25777.17085.41248zm2.33333-5.25h-5.83333v-.58334c0-.77354.30729-1.51541.85427-2.06239s1.28885-.85427 2.0624-.85427 1.51541.30729 2.06239.85427.85427 1.28885.85427 2.06239z" fill="url(#a)"/></g></svg>