<svg fill="none" height="14" viewBox="0 0 42 14" width="42" xmlns="http://www.w3.org/2000/svg" xmlns:xlink="http://www.w3.org/1999/xlink"><linearGradient id="a"><stop offset=".144954" stop-color="#c8c0f8"/><stop offset="1" stop-color="#585181"/></linearGradient><linearGradient id="b" gradientUnits="userSpaceOnUse" x1="26.7252" x2="26.7251" xlink:href="#a" y1="-6.99762" y2="14"/><linearGradient id="c" gradientUnits="userSpaceOnUse" x1="-1.27268" x2="-1.27281" xlink:href="#a" y1="-6.99968" y2="13.9998"/><linearGradient id="d" gradientUnits="userSpaceOnUse" x1="12.7401" x2="12.74" xlink:href="#a" y1="-7.00267" y2="13.9999"/><clipPath id="e"><path d="m28 0h14v14h-14z"/></clipPath><clipPath id="f"><path d="m0 0h14v14h-14z"/></clipPath><clipPath id="g"><path d="m14 0h14v14h-14z"/></clipPath><g clip-path="url(#e)"><path d="m36.5166 12.4251c-.175.1318-.3611.2706-.5192.4083h1.3359c.1547 0 .303.0615.4124.1709s.1709.2577.1709.4124-.0615.3031-.1709.4125-.2577.1709-.4124.1709h-2.3334c-.1547 0-.3031-.0615-.4125-.1709s-.1708-.2578-.1708-.4125c0-.875.7437-1.4326 1.4-1.925.4375-.3278.9333-.7.9333-.9916 0-.1547-.0614-.3031-.1708-.4125-.1094-.10941-.2578-.17086-.4125-.17086s-.3031.06145-.4125.17086c-.1094.1094-.1708.2578-.1708.4125s-.0615.3031-.1709.4124c-.1094.1094-.2578.1709-.4125.1709s-.3031-.0615-.4125-.1709c-.1094-.1093-.1708-.2577-.1708-.4124 0-.4642.1844-.90928.5126-1.23747.3281-.32819.7733-.51256 1.2374-.51256s.9092.18437 1.2374.51256.5126.77327.5126 1.23747c0 .875-.7438 1.4326-1.4 1.925zm4.9-3.67503c-.1547 0-.3031.06146-.4125.17085-.1094.1094-.1708.25777-.1708.41248v1.75h-.5834c-.1547 0-.3031-.0615-.4125-.1709-.1094-.1093-.1708-.2577-.1708-.4124v-1.1667c0-.15471-.0615-.30308-.1709-.41248-.1094-.10939-.2577-.17085-.4124-.17085-.1548 0-.3031.06146-.4125.17085-.1094.1094-.1709.25777-.1709.41248v1.1667c0 .4641.1844.9092.5126 1.2374s.7733.5126 1.2374.5126h.5834v1.1666c0 .1547.0614.3031.1708.4125s.2578.1709.4125.1709.3031-.0615.4125-.1709.1708-.2578.1708-.4125v-4.0833c0-.15471-.0614-.30308-.1708-.41248-.1094-.10939-.2578-.17085-.4125-.17085zm-5.8333-1.75v-2.91667c0-.15471-.0615-.30308-.1709-.41248-.1094-.10939-.2578-.17085-.4125-.17085s-.3031.06146-.4125.17085c-.1094.1094-.1708.25777-.1708.41248v2.33334h-1.75c-.1547 0-.3031.06145-.4125.17085s-.1708.25777-.1708.41248.0614.30308.1708.41248c.1094.10939.2578.17085.4125.17085h2.3333c.1547 0 .3031-.06146.4125-.17085.1094-.1094.1709-.25777.1709-.41248zm5.8333-5.83333c-.1547 0-.3031.06145-.4125.17085s-.1708.25777-.1708.41248v1.38483c-.6078-.91725-1.4233-1.67829-2.3803-2.221388-.957-.543094-2.0285-.852937-3.1276-.90438939-1.0992-.05145241-2.195.15693539-3.1985.60825539-1.0035.451322-1.8865 1.132862-2.5773 1.989322-.6909.85645-1.1701 1.86371-1.3987 2.94003-.2287 1.07632-.2004 2.19139.0825 3.25473.283 1.06335.8126 2.04504 1.546 2.86534.7333.8203 1.6497 1.4562 2.6749 1.8561.0677.0261.1397.0396.2123.0397.1361.0002.268-.0472.3729-.134.1048-.0868.176-.2076.2012-.3414.0252-.1337.0029-.2721-.0632-.3911s-.1717-.2112-.2986-.2605c-.8703-.3366-1.6472-.877-2.2654-1.5759-.6183-.6989-1.0598-1.53596-1.2876-2.44085s-.2352-1.85122-.0215-2.75955c.2136-.90833.642-1.75216 1.2493-2.46066.6072-.70849 1.3756-1.26096 2.2405-1.61104.865-.35009 1.8013-.48756 2.7304-.40089.9291.08668 1.8238.39497 2.6091.89901.7853.50403 1.4382 1.18909 1.9039 1.99768h-1.5377c-.1547 0-.3031.06146-.4125.17086-.1094.10939-.1708.25777-.1708.41248s.0614.30308.1708.41247c.1094.1094.2578.17086.4125.17086h1.75c.4642 0 .9093-.18438 1.2375-.51256.3282-.32819.5125-.77331.5125-1.23744v-1.75c0-.15471-.0614-.30308-.1708-.41248s-.2578-.17085-.4125-.17085z" fill="url(#b)"/></g><g clip-path="url(#f)"><path d="m11.6667 0h-9.33337c-.61884 0-1.21233.245833-1.649912.683418-.437585.437582-.683418 1.031072-.683418 1.649912v7c0 .61884.245833 1.21237.683418 1.64987.437582.4376 1.031072.6835 1.649912.6835h1.69167l2.59642 2.1951c.10533.0891.23884.138.37683.138s.2715-.0489.37683-.138l2.59992-2.1951h1.6917c.6188 0 1.2123-.2459 1.6499-.6835.4376-.4375.6834-1.03103.6834-1.64987v-7c0-.61884-.2458-1.21233-.6834-1.649912-.4376-.437585-1.0311-.683418-1.6499-.683418zm-7.58337 2.91667h2.91667c.15471 0 .30308.06146.41248.17085.10939.1094.17085.25777.17085.41248s-.06146.30308-.17085.41248c-.1094.1094-.25777.17085-.41248.17085h-2.91667c-.15471 0-.30308-.06145-.41248-.17085-.10939-.1094-.17085-.25777-.17085-.41248s.06146-.30308.17085-.41248c.1094-.10939.25777-.17085.41248-.17085zm5.83334 5.83333h-5.83334c-.15471 0-.30308-.06146-.41248-.17085-.10939-.1094-.17085-.25777-.17085-.41248s.06146-.30309.17085-.41248c.1094-.1094.25777-.17086.41248-.17086h5.83334c.15473 0 .30303.06146.41243.17086.1094.10939.1709.25777.1709.41248s-.0615.30308-.1709.41248c-.1094.10939-.2577.17085-.41243.17085zm0-2.33333h-5.83334c-.15471 0-.30308-.06146-.41248-.17086-.10939-.10939-.17085-.25777-.17085-.41248s.06146-.30308.17085-.41248c.1094-.10939.25777-.17085.41248-.17085h5.83334c.15473 0 .30303.06146.41243.17085.1094.1094.1709.25777.1709.41248s-.0615.30309-.1709.41248c-.1094.1094-.2577.17086-.41243.17086z" fill="url(#c)"/></g><g clip-path="url(#g)"><path d="m25.4772 1.60874c-.7391-.61503-1.5976-1.070318-2.5213-1.337172-.9238-.26685274-1.8928-.3394865-2.846-.213324-1.7634.229086-3.3735 1.120686-4.5034 2.493756s-1.6948 3.12469-1.5802 4.89919.9003 3.43891 2.1975 4.65511c1.2971 1.2163 3.0086 1.8933 4.7868 1.8936h4.0728c.7733-.0009 1.5146-.3085 2.0614-.8553s.8544-1.2881.8553-2.0614v-4.52312c-.0618-.95349-.3173-1.88437-.7511-2.73571s-1.0367-1.60525-1.7718-2.21563zm-6.8104 2.4745h2.3333c.1547 0 .3031.06146.4125.17086s.1708.25777.1708.41248-.0614.30308-.1708.41248c-.1094.10939-.2578.17085-.4125.17085h-2.3333c-.1548 0-.3031-.06146-.4125-.17085-.1094-.1094-.1709-.25777-.1709-.41248s.0615-.30308.1709-.41248.2577-.17086.4125-.17086zm4.6666 5.83334h-4.6666c-.1548 0-.3031-.06146-.4125-.17086-.1094-.10939-.1709-.25776-.1709-.41247s.0615-.30309.1709-.41248c.1094-.1094.2577-.17086.4125-.17086h4.6666c.1547 0 .3031.06146.4125.17086.1094.10939.1709.25777.1709.41248s-.0615.30308-.1709.41247c-.1094.1094-.2578.17086-.4125.17086zm0-2.33333h-4.6666c-.1548 0-.3031-.06146-.4125-.17086s-.1709-.25777-.1709-.41248.0615-.30308.1709-.41248c.1094-.10939.2577-.17085.4125-.17085h4.6666c.1547 0 .3031.06146.4125.17085.1094.1094.1709.25777.1709.41248s-.0615.30308-.1709.41248-.2578.17086-.4125.17086z" fill="url(#d)"/></g></svg>