<svg width="16" height="16" viewBox="0 0 16 16" fill="none" xmlns="http://www.w3.org/2000/svg">
<path d="M15.3333 10.6667C15.1565 10.6667 14.987 10.7369 14.8619 10.8619C14.7369 10.987 14.6667 11.1565 14.6667 11.3333V12.6667C14.6667 13.1971 14.456 13.7058 14.0809 14.0809C13.7058 14.456 13.1971 14.6667 12.6667 14.6667H11.3333C11.1565 14.6667 10.987 14.7369 10.8619 14.8619C10.7369 14.987 10.6667 15.1565 10.6667 15.3333C10.6667 15.5101 10.7369 15.6797 10.8619 15.8047C10.987 15.9298 11.1565 16 11.3333 16H12.6667C13.5504 15.9989 14.3976 15.6474 15.0225 15.0225C15.6474 14.3976 15.9989 13.5504 16 12.6667V11.3333C16 11.1565 15.9298 10.987 15.8047 10.8619C15.6797 10.7369 15.5101 10.6667 15.3333 10.6667Z" fill="url(#paint0_linear_1778_0)"/>
<path d="M0.666667 5.33333C0.843478 5.33333 1.01305 5.2631 1.13807 5.13807C1.2631 5.01305 1.33333 4.84348 1.33333 4.66667V3.33333C1.33333 2.8029 1.54405 2.29419 1.91912 1.91912C2.29419 1.54405 2.8029 1.33333 3.33333 1.33333H4.66667C4.84348 1.33333 5.01305 1.2631 5.13807 1.13807C5.2631 1.01305 5.33333 0.843478 5.33333 0.666667C5.33333 0.489856 5.2631 0.320286 5.13807 0.195262C5.01305 0.0702379 4.84348 0 4.66667 0H3.33333C2.4496 0.00105857 1.60237 0.352588 0.97748 0.97748C0.352588 1.60237 0.00105857 2.4496 0 3.33333V4.66667C0 4.84348 0.0702379 5.01305 0.195262 5.13807C0.320286 5.2631 0.489856 5.33333 0.666667 5.33333Z" fill="url(#paint1_linear_1778_0)"/>
<path d="M4.66667 14.6667H3.33333C2.8029 14.6667 2.29419 14.456 1.91912 14.0809C1.54405 13.7058 1.33333 13.1971 1.33333 12.6667V11.3333C1.33333 11.1565 1.2631 10.987 1.13807 10.8619C1.01305 10.7369 0.843478 10.6667 0.666667 10.6667C0.489856 10.6667 0.320286 10.7369 0.195262 10.8619C0.0702379 10.987 0 11.1565 0 11.3333V12.6667C0.00105857 13.5504 0.352588 14.3976 0.97748 15.0225C1.60237 15.6474 2.4496 15.9989 3.33333 16H4.66667C4.84348 16 5.01305 15.9298 5.13807 15.8047C5.2631 15.6797 5.33333 15.5101 5.33333 15.3333C5.33333 15.1565 5.2631 14.987 5.13807 14.8619C5.01305 14.7369 4.84348 14.6667 4.66667 14.6667Z" fill="url(#paint2_linear_1778_0)"/>
<path d="M12.6667 0H11.3333C11.1565 0 10.987 0.0702379 10.8619 0.195262C10.7369 0.320286 10.6667 0.489856 10.6667 0.666667C10.6667 0.843478 10.7369 1.01305 10.8619 1.13807C10.987 1.2631 11.1565 1.33333 11.3333 1.33333H12.6667C13.1971 1.33333 13.7058 1.54405 14.0809 1.91912C14.456 2.29419 14.6667 2.8029 14.6667 3.33333V4.66667C14.6667 4.84348 14.7369 5.01305 14.8619 5.13807C14.987 5.2631 15.1565 5.33333 15.3333 5.33333C15.5101 5.33333 15.6797 5.2631 15.8047 5.13807C15.9298 5.01305 16 4.84348 16 4.66667V3.33333C15.9989 2.4496 15.6474 1.60237 15.0225 0.97748C14.3976 0.352588 13.5504 0.00105857 12.6667 0Z" fill="url(#paint3_linear_1778_0)"/>
<path d="M7.99992 7.33333C9.47268 7.33333 10.6666 6.13943 10.6666 4.66667C10.6666 3.19391 9.47268 2 7.99992 2C6.52716 2 5.33325 3.19391 5.33325 4.66667C5.33325 6.13943 6.52716 7.33333 7.99992 7.33333Z" fill="url(#paint4_linear_1778_0)"/>
<path d="M4.50599 9.83941C5.25591 9.08949 6.27271 8.66773 7.33325 8.66667H8.66659C9.72713 8.66773 10.7439 9.08949 11.4938 9.83941C12.2438 10.5893 12.6655 11.6061 12.6666 12.6667C12.6666 12.8435 12.5963 13.013 12.4713 13.1381C12.3463 13.2631 12.1767 13.3333 11.9999 13.3333H3.99992C3.82311 13.3333 3.65354 13.2631 3.52851 13.1381C3.40349 13.013 3.33325 12.8435 3.33325 12.6667C3.33431 11.6061 3.75608 10.5893 4.50599 9.83941Z" fill="url(#paint5_linear_1778_0)"/>
<defs>
<linearGradient id="paint0_linear_1778_0" x1="8.00018" y1="0" x2="8.00002" y2="17.0667" gradientUnits="userSpaceOnUse">
<stop offset="0.144954" stop-color="#C8C0F8"/>
<stop offset="1" stop-color="#585181"/>
</linearGradient>
<linearGradient id="paint1_linear_1778_0" x1="8.00018" y1="0" x2="8.00002" y2="17.0667" gradientUnits="userSpaceOnUse">
<stop offset="0.144954" stop-color="#C8C0F8"/>
<stop offset="1" stop-color="#585181"/>
</linearGradient>
<linearGradient id="paint2_linear_1778_0" x1="8.00018" y1="0" x2="8.00002" y2="17.0667" gradientUnits="userSpaceOnUse">
<stop offset="0.144954" stop-color="#C8C0F8"/>
<stop offset="1" stop-color="#585181"/>
</linearGradient>
<linearGradient id="paint3_linear_1778_0" x1="8.00018" y1="0" x2="8.00002" y2="17.0667" gradientUnits="userSpaceOnUse">
<stop offset="0.144954" stop-color="#C8C0F8"/>
<stop offset="1" stop-color="#585181"/>
</linearGradient>
<linearGradient id="paint4_linear_1778_0" x1="8.00018" y1="0" x2="8.00002" y2="17.0667" gradientUnits="userSpaceOnUse">
<stop offset="0.144954" stop-color="#C8C0F8"/>
<stop offset="1" stop-color="#585181"/>
</linearGradient>
<linearGradient id="paint5_linear_1778_0" x1="8.00018" y1="0" x2="8.00002" y2="17.0667" gradientUnits="userSpaceOnUse">
<stop offset="0.144954" stop-color="#C8C0F8"/>
<stop offset="1" stop-color="#585181"/>
</linearGradient>
</defs>
</svg>
