<svg fill="none" height="14" viewBox="0 0 42 14" width="42" xmlns="http://www.w3.org/2000/svg" xmlns:xlink="http://www.w3.org/1999/xlink"><linearGradient id="a"><stop offset=".144954" stop-color="#c8c0f8"/><stop offset="1" stop-color="#585181"/></linearGradient><linearGradient id="b" gradientUnits="userSpaceOnUse" x1="26.7273" x2="26.7272" xlink:href="#a" y1="-6.99978" y2="14"/><linearGradient id="c" gradientUnits="userSpaceOnUse" x1="12.7273" x2="12.7272" xlink:href="#a" y1="-6.99978" y2="14"/><linearGradient id="d" gradientUnits="userSpaceOnUse" x1="-1.27268" x2="-1.27281" xlink:href="#a" y1="-6.99978" y2="14"/><clipPath id="e"><path d="m28 0h14v14h-14z"/></clipPath><clipPath id="f"><path d="m14 0h14v14h-14z"/></clipPath><clipPath id="g"><path d="m0 0h14v14h-14z"/></clipPath><g clip-path="url(#e)"><path clip-rule="evenodd" d="m35 0c-1.3845 0-2.7378.410543-3.889 1.17971-1.1511.76917-2.0483 1.86242-2.5782 3.14151-.5298 1.27908-.6684 2.68654-.3983 4.04441s.9368 2.60517 1.9158 3.58407c.9789.979 2.2262 1.6457 3.5841 1.9158 1.3578.2701 2.7653.1315 4.0444-.3983 1.2791-.5299 2.3723-1.4271 3.1415-2.5782.7692-1.15115 1.1797-2.50453 1.1797-3.889-.002-1.8559-.7401-3.63521-2.0525-4.94753-1.3123-1.31232-3.0916-2.0504627-4.9475-2.05247zm-2.8923 7.05792-.4652.00035c-.0463 0-.0906-.01832-.1233-.05098-.0327-.0327-.0512-.07705-.0512-.12331-.0005-.75978.2438-1.48093.7067-2.0855.6538-.85409 1.648-1.34395 2.7277-1.34395.7589 0 1.4787.24387 2.0814.70524.2181.16697.4154.36002.5872.5731l.1531-.86748c.0168-.09487.1071-.15827.2021-.14145l.4581.08086c.0948.01675.1582.10722.1414.20208l-.3639 2.06127c-.008.04556-.0338.08605-.0717.11259-.0296.02065-.0645.03151-.1001.03151-.0101 0-.0202-.00086-.0303-.00265l-2.0612-.3639c-.0949-.01675-.1582-.10722-.1415-.20208l.0809-.45805c.008-.04556.0338-.08605.0717-.11259.038-.02651.0849-.0369.1304-.02886l.8589.15164c-.1208-.14278-.2576-.27304-.4099-.38965-.4596-.35181-1.0084-.53777-1.5872-.53777-.8237 0-1.5822.37358-2.0808 1.02493-.353.46114-.5394 1.01101-.539 1.59011.0001.09633-.0779.17447-.1743.17454zm6.2499-.11628c.0462 0 .0905.01835.1232.05101.0327.0327.0512.07705.0512.12328.0005.75978-.2438 1.48094-.7067 2.0855-.6538.85407-1.648 1.34397-2.7276 1.34397-.759 0-1.4788-.2439-2.0814-.70526-.2181-.16697-.4154-.36002-.5872-.5731l-.1532.86746c-.0149.0846-.0885.1442-.1715.1442-.0101 0-.0203-.0009-.0306-.0027l-.458-.0809c-.0949-.0167-.1582-.1072-.1415-.20207l.3639-2.06127c.0081-.04556.0338-.08605.0718-.11258.0379-.02652.0848-.03689.1303-.02887l2.0612.36391c.0949.01674.1582.10721.1415.20208l-.0809.45804c-.008.04556-.0338.08605-.0717.11259-.0379.02653-.0847.03693-.1303.02886l-.859-.15163c.1209.14277.2576.27303.4099.38964.4596.35181 1.0084.53777 1.5872.53777.8238 0 1.5822-.37357 2.0808-1.02493.353-.46114.5394-1.01101.539-1.5901-.0001-.09633.078-.17448.1743-.17455z" fill="url(#b)" fill-rule="evenodd"/></g><g clip-path="url(#f)"><path clip-rule="evenodd" d="m21 0c-1.3845 0-2.7378.410543-3.889 1.17971-1.1511.76917-2.0483 1.86242-2.5782 3.14151-.5298 1.27908-.6684 2.68654-.3983 4.04441s.9368 2.60517 1.9158 3.58407c.9789.979 2.2262 1.6457 3.5841 1.9158 1.3578.2701 2.7653.1315 4.0444-.3983 1.2791-.5299 2.3723-1.4271 3.1415-2.5782.7692-1.15115 1.1797-2.50453 1.1797-3.889-.002-1.8559-.7401-3.63521-2.0525-4.94753-1.3123-1.31232-3.0916-2.0504627-4.9475-2.05247zm2.3333 7.58333h-1.75v.00239h-1.1666v-.00239h-1.75c-.1547 0-.3031-.06146-.4125-.17085-.1094-.1094-.1709-.25777-.1709-.41248s.0615-.30308.1709-.41248.2578-.17085.4125-.17085h4.6666c.1547 0 .3031.06145.4125.17085s.1709.25777.1709.41248-.0615.30308-.1709.41248c-.1094.10939-.2578.17085-.4125.17085z" fill="url(#c)" fill-rule="evenodd"/></g><g clip-path="url(#g)"><path d="m7 0c-1.38447 0-2.73784.410543-3.88899 1.17971-1.15114.76917-2.04835 1.86242-2.578164 3.14151-.529813 1.27908-.668436 2.68654-.39834 4.04441.270097 1.35787.936784 2.60517 1.915754 3.58407.97896.979 2.22624 1.6457 3.58411 1.9158s2.76534.1315 4.04442-.3983c1.27911-.5299 2.37231-1.4271 3.14151-2.5782.7692-1.15115 1.1797-2.50453 1.1797-3.889-.002-1.8559-.7401-3.63521-2.0525-4.94753-1.3123-1.31232-3.0916-2.0504627-4.9475-2.05247zm2.33334 7.58333h-1.75v1.75c0 .15471-.06146.30309-.17086.41248-.10939.1094-.25777.17086-.41248.17086s-.30308-.06146-.41248-.17086c-.10939-.10939-.17085-.25777-.17085-.41248v-1.75h-1.75c-.15471 0-.30308-.06146-.41248-.17085-.1094-.1094-.17085-.25777-.17085-.41248s.06145-.30308.17085-.41248.25777-.17085.41248-.17085h1.75v-1.75c0-.15471.06146-.30309.17085-.41248.1094-.1094.25777-.17086.41248-.17086s.30309.06146.41248.17086c.1094.10939.17086.25777.17086.41248v1.75h1.75c.15471 0 .30308.06145.41248.17085.10939.1094.17085.25777.17085.41248s-.06146.30308-.17085.41248c-.1094.10939-.25777.17085-.41248.17085z" fill="url(#d)"/></g></svg>