<svg fill="none" height="32" viewBox="0 0 32 32" width="32" xmlns="http://www.w3.org/2000/svg" xmlns:xlink="http://www.w3.org/1999/xlink"><clipPath id="a"><path d="m0 0h16v16h-16z"/></clipPath><clipPath id="b"><path d="m16 0h16v16h-16z"/></clipPath><clipPath id="c"><path d="m0 16h16v16h-16z"/></clipPath><clipPath id="d"><path d="m16 16h16v16h-16z"/></clipPath><g clip-path="url(#a)" fill="#8580a1"><path d="m8.00004 10.6663c1.47276 0 2.66666-1.19387 2.66666-2.66663 0-1.47275-1.1939-2.66666-2.66666-2.66666s-2.66667 1.19391-2.66667 2.66666c0 1.47276 1.19391 2.66663 2.66667 2.66663z"/><path d="m15.514 6.27886c-1.034-1.684-3.386-4.50933-7.51397-4.50933-4.128 0-6.48 2.82533-7.513996 4.50933-.319648.51701-.48896369 1.11283-.48896369 1.72067s.16931569 1.20366.48896369 1.72067c1.033996 1.684 3.385996 4.5093 7.513996 4.5093 4.12797 0 6.47997-2.8253 7.51397-4.5093.3197-.51701.489-1.11283.489-1.72067s-.1693-1.20366-.489-1.72067zm-7.51397 5.72064c-.79112 0-1.56448-.2346-2.22228-.6741-.65779-.4395-1.17048-1.0642-1.47323-1.79513-.30275-.73091-.38197-1.53518-.22763-2.3111s.53531-1.48866 1.09472-2.04807 1.27214-.94037 2.04806-1.09471c.77593-.15434 1.58019-.07513 2.3111.22762.73093.30275 1.35563.81544 1.79513 1.47324s.6741 1.43116.6741 2.22228c-.001 1.06054-.4228 2.07737-1.1727 2.82727s-1.76672 1.1717-2.82727 1.1727z"/></g><g clip-path="url(#b)"><path d="m31.514 6.27923c-.6018-.98551-1.361-1.86583-2.2473-2.606l1.8667-1.86666c.1214-.12574.1886-.29414.1871-.46894s-.0716-.342005-.1953-.46561c-.1236-.123605-.2908-.193718-.4656-.195237s-.3432.065677-.4689.187116l-2.03 2.032671c-1.2584-.74746-2.6971-1.13703-4.1607-1.12667-4.1273 0-6.4793 2.82533-7.514 4.50933-.3196.51701-.4889 1.11283-.4889 1.72067s.1693 1.20366.4889 1.72067c.6019.98553 1.361 1.86583 2.2474 2.60603l-1.8667 1.8666c-.0637.0615-.1145.1351-.1494.2164-.0349.0814-.0533.1688-.0541.2574-.0008.0885.0161.1763.0496.2582s.083.1564.1456.219.1371.1121.219.1456.1697.0504.2582.0496c.0886-.0008.176-.0192.2574-.0541.0813-.0349.1549-.0857.2164-.1494l2.0346-2.0347c1.2569.7474 2.6938 1.1376 4.156 1.1287 4.1274 0 6.4794-2.8253 7.514-4.50933.3197-.51701.489-1.11283.489-1.72067s-.1693-1.20366-.489-1.72067zm-11.514 1.72067c-.0012-.73426.2-1.45466.5815-2.082.3816-.62734.9287-1.13734 1.5813-1.47392.6526-.33659 1.3853-.48674 2.1177-.43395.7324.0528 1.436.30649 2.0335.7332l-.968.968c-.4063-.24506-.8714-.37568-1.346-.378-.7072 0-1.3855.28095-1.8856.78105s-.781 1.17838-.781 1.88562c.0023.47454.1329.93963.378 1.346l-.968.968c-.4834-.67478-.7433-1.48397-.7434-2.314zm4 4c-.83 0-1.6392-.26-2.314-.7433l.968-.968c.4064.245.8715.3756 1.346.378.7073 0 1.3856-.281 1.8857-.78108.5-.5001.781-1.17838.781-1.88562-.0023-.47454-.1329-.93963-.378-1.346l.968-.968c.4267.59755.6804 1.30118.7332 2.03354.0528.73237-.0974 1.46511-.4339 2.11768-.3366.65258-.8466 1.19968-1.474 1.58128-.6273.3816-1.3477.5828-2.082.5815z" fill="#8580a1"/></g><g clip-path="url(#c)" fill="#fff"><path d="m8.00004 26.6663c1.47276 0 2.66666-1.1939 2.66666-2.6666 0-1.4728-1.1939-2.6667-2.66666-2.6667s-2.66667 1.1939-2.66667 2.6667c0 1.4727 1.19391 2.6666 2.66667 2.6666z"/><path d="m15.514 22.2789c-1.034-1.684-3.386-4.5094-7.51397-4.5094-4.128 0-6.48 2.8254-7.513996 4.5094-.319648.517-.48896369 1.1128-.48896369 1.7206 0 .6079.16931569 1.2037.48896369 1.7207 1.033996 1.684 3.385996 4.5093 7.513996 4.5093 4.12797 0 6.47997-2.8253 7.51397-4.5093.3197-.517.489-1.1128.489-1.7207 0-.6078-.1693-1.2036-.489-1.7206zm-7.51397 5.7206c-.79112 0-1.56448-.2346-2.22228-.6741-.65779-.4395-1.17048-1.0642-1.47323-1.7951s-.38197-1.5352-.22763-2.3111c.15434-.776.53531-1.4887 1.09472-2.0481s1.27214-.9404 2.04806-1.0947c.77593-.1544 1.58019-.0751 2.3111.2276.73093.3028 1.35563.8155 1.79513 1.4733.4395.6577.6741 1.4311.6741 2.2222-.001 1.0606-.4228 2.0774-1.1727 2.8273s-1.76672 1.1717-2.82727 1.1727z"/></g><g clip-path="url(#d)"><path d="m31.514 22.2792c-.6018-.9855-1.361-1.8658-2.2473-2.606l1.8667-1.8666c.1214-.1258.1886-.2942.1871-.469s-.0716-.342-.1953-.4656c-.1236-.1236-.2908-.1937-.4656-.1952s-.3432.0657-.4689.1871l-2.03 2.0327c-1.2584-.7475-2.6971-1.1371-4.1607-1.1267-4.1273 0-6.4793 2.8253-7.514 4.5093-.3196.517-.4889 1.1129-.4889 1.7207s.1693 1.2037.4889 1.7207c.6019.9855 1.361 1.8658 2.2474 2.606l-1.8667 1.8666c-.0637.0615-.1145.1351-.1494.2164-.0349.0814-.0533.1688-.0541.2574-.0008.0885.0161.1763.0496.2582s.083.1564.1456.219.1371.1121.219.1456.1697.0504.2582.0496c.0886-.0008.176-.0192.2574-.0541.0813-.0349.1549-.0857.2164-.1494l2.0346-2.0347c1.2569.7474 2.6938 1.1376 4.156 1.1287 4.1274 0 6.4794-2.8253 7.514-4.5093.3197-.517.489-1.1129.489-1.7207s-.1693-1.2037-.489-1.7207zm-11.514 1.7207c-.0012-.7343.2-1.4547.5815-2.082.3816-.6273.9287-1.1373 1.5813-1.4739s1.3853-.4868 2.1177-.434 1.436.3065 2.0335.7332l-.968.968c-.4063-.245-.8714-.3756-1.346-.378-.7072 0-1.3855.281-1.8856.7811s-.781 1.1784-.781 1.8856c.0023.4745.1329.9396.378 1.346l-.968.968c-.4834-.6748-.7433-1.484-.7434-2.314zm4 4c-.83 0-1.6392-.26-2.314-.7433l.968-.968c.4064.245.8715.3756 1.346.378.7073 0 1.3856-.281 1.8857-.7811.5-.5001.781-1.1784.781-1.8856-.0023-.4745-.1329-.9396-.378-1.346l.968-.968c.4267.5975.6804 1.3012.7332 2.0335.0528.7324-.0974 1.4651-.4339 2.1177-.3366.6526-.8466 1.1997-1.474 1.5813-.6273.3816-1.3477.5828-2.082.5815z" fill="#fff"/></g></svg>