<svg fill="none" height="16" viewBox="0 0 48 16" width="48" xmlns="http://www.w3.org/2000/svg" xmlns:xlink="http://www.w3.org/1999/xlink"><linearGradient id="a"><stop offset=".144954" stop-color="#c8c0f8"/><stop offset="1" stop-color="#585181"/></linearGradient><linearGradient id="b" gradientUnits="userSpaceOnUse" x1="8.00019" x2="7.99999" xlink:href="#a" y1="0" y2="17.0667"/><linearGradient id="c" gradientUnits="userSpaceOnUse" x1="24.0002" x2="24" xlink:href="#a" y1="0" y2="17.0667"/><linearGradient id="d" gradientUnits="userSpaceOnUse" x1="40.0002" x2="40" xlink:href="#a" y1=".666992" y2="16.3114"/><mask id="e" height="16" maskUnits="userSpaceOnUse" width="16" x="0" y="0"><path d="m0 0h16v16h-16z" fill="#c4c4c4"/></mask><g mask="url(#e)"><path d="m12.6667 5.616v-.94933c0-1.23768-.4917-2.42467-1.3668-3.29983-.8752-.875175-2.06218-1.36684-3.29986-1.36684s-2.42466.491665-3.29983 1.36684c-.87517.87516-1.36684 2.06215-1.36684 3.29983v.94933c-.59376.25914-1.09913.68568-1.45433 1.22747-.3552.5418-.54481 1.17535-.54567 1.8232v4.00003c.00106.8837.35259 1.7309.97748 2.3558.6249.6249 1.47213.9764 2.35586.9775h6.66669c.8837-.0011 1.7309-.3526 2.3558-.9775s.9764-1.4721.9775-2.3558v-4.00003c-.0008-.64785-.1905-1.2814-.5457-1.8232-.3552-.54179-.8605-.96833-1.4543-1.22747zm-3.99999 5.7173c0 .1768-.07024.3464-.19526.4714-.12503.1251-.2946.1953-.47141.1953s-.34638-.0702-.4714-.1953c-.12503-.125-.19527-.2946-.19527-.4714v-1.3333c0-.17681.07024-.34638.19527-.4714.12502-.12503.29459-.19527.4714-.19527s.34638.07024.47141.19527c.12502.12502.19526.29459.19526.4714zm2.66669-5.99997h-6.66669v-.66666c0-.88406.35119-1.7319.97631-2.35703.62512-.62512 1.47297-.97631 2.35702-.97631.88406 0 1.7319.35119 2.35706.97631.6251.62513.9763 1.47297.9763 2.35703z" fill="url(#b)"/></g><path clip-rule="evenodd" d="m28.6667 0h-9.3334c-.8837.00105857-1.7309.352588-2.3558.97748-.6249.62489-.9764 1.47212-.9775 2.35585v9.33337c.0011.8837.3526 1.7309.9775 2.3558s1.4721.9764 2.3558.9775v-2c0-1.2377.4917-2.4247 1.3669-3.2998.8751-.8752 2.0621-1.36687 3.2998-1.36687s2.4247.49167 3.2998 1.36687c.8752.8751 1.3669 2.0621 1.3669 3.2998v2c.8837-.0011 1.7309-.3526 2.3558-.9775s.9764-1.4721.9775-2.3558v-9.33337c-.0011-.88373-.3526-1.73096-.9775-2.35585-.6249-.624892-1.4721-.97642143-2.3558-.97748zm-4.6667 8c-.5274 0-1.043-.1564-1.4815-.44941-.4386-.29302-.7803-.7095-.9822-1.19677-.2018-.48727-.2546-1.02344-.1517-1.54073.1029-.51728.3568-.99243.7298-1.36537.3729-.37294.8481-.62692 1.3654-.72981.5172-.1029 1.0534-.05009 1.5407.15174.4873.20184.9037.54363 1.1968.98216.293.43853.4494.95411.4494 1.48152 0 .70725-.281 1.38552-.7811 1.88562s-1.1784.78105-1.8856.78105z" fill="url(#c)" fill-rule="evenodd"/><g fill="url(#d)"><path d="m47.5041 2.27433-6.0893 6.08999c-.3758.37421-.8844.58432-1.4147.58432s-1.039-.21011-1.4147-.58432l-6.0893-6.08999c.295-.48913.711-.89398 1.208-1.17552.497-.281536 1.0581-.430257 1.6293-.431818h9.3334c.5711.001561 1.1323.150282 1.6293.431818.497.28154.913.68639 1.208 1.17552z"/><path d="m42.3573 9.30699 5.612-5.612c.0035.03913.0086.07688.0137.11424.0086.06321.017.12531.017.1911v7.99997c-.0011.8838-.3526 1.731-.9775 2.3559s-1.4721.9764-2.3558.9775h-9.3334c-.8837-.0011-1.7309-.3526-2.3558-.9775s-.9764-1.4721-.9775-2.3559v-7.99997c0-.06579.0084-.12789.017-.1911.0051-.03736.0102-.07511.0137-.11424l5.612 5.612c.6257.62417 1.4735.97471 2.3573.97471s1.7316-.35054 2.3573-.97471z"/></g></svg>