<svg width="10" height="10" viewBox="0 0 10 10" fill="none" xmlns="http://www.w3.org/2000/svg">
<path d="M7.77793 4.6098L3.32781 0.159755C3.22488 0.0567475 3.08748 0 2.94098 0C2.79448 0 2.65708 0.0567475 2.55416 0.159755L2.22643 0.487394C2.01318 0.700889 2.01318 1.04788 2.22643 1.26105L5.96332 4.99793L2.22229 8.73895C2.11936 8.84196 2.06253 8.97928 2.06253 9.1257C2.06253 9.27228 2.11936 9.4096 2.22229 9.51269L2.55001 9.84025C2.65302 9.94325 2.79033 10 2.93684 10C3.08334 10 3.22074 9.94325 3.32366 9.84025L7.77793 5.38614C7.8811 5.2828 7.93777 5.14484 7.93745 4.99817C7.93777 4.85094 7.8811 4.71305 7.77793 4.6098Z" fill="#FED501"/>
</svg>
