<svg width="16" height="16" viewBox="0 0 16 16" fill="none" xmlns="http://www.w3.org/2000/svg">
<path fill-rule="evenodd" clip-rule="evenodd" d="M8 0C3.58173 0 0 3.58173 0 8C0 12.4183 3.58173 16 8 16C12.4183 16 16 12.4183 16 8C16 3.58173 12.4183 0 8 0ZM7.7772 6.77933L7.7604 6.5025C7.71003 5.78503 8.1521 5.1297 8.8516 4.8755C9.109 4.7851 9.54547 4.7738 9.83087 4.8529C9.94277 4.8868 10.1554 4.99977 10.3065 5.10147L10.5807 5.2879L10.8829 5.19187C11.0508 5.141 11.2746 5.05627 11.3753 4.99977C11.4704 4.94893 11.5544 4.92067 11.5544 4.93763C11.5544 5.03367 11.3473 5.36133 11.1739 5.5421C10.9388 5.79633 11.006 5.81893 11.4816 5.64943C11.767 5.5534 11.7726 5.5534 11.7167 5.66073C11.6831 5.71723 11.5096 5.91497 11.3249 6.09573C11.0116 6.40647 10.9948 6.44037 10.9948 6.70023C10.9948 7.10133 10.8045 7.93743 10.6143 8.39503C10.2617 9.25373 9.5063 10.1407 8.75087 10.587C7.68767 11.2141 6.2719 11.3722 5.08 11.005C4.6827 10.8807 4 10.5644 4 10.5079C4 10.4909 4.20703 10.4683 4.45887 10.4627C4.98487 10.4514 5.51087 10.3045 5.95853 10.0446L6.26073 9.86387L5.91377 9.74523C5.42133 9.57573 4.97927 9.18593 4.86737 8.81873C4.83377 8.7001 4.84497 8.69443 5.15833 8.69443L5.4829 8.6888L5.2087 8.55887C4.88413 8.39503 4.58757 8.1182 4.44207 7.83573C4.33573 7.63237 4.20147 7.11827 4.24063 7.07873C4.2518 7.0618 4.36933 7.09567 4.50363 7.14087C4.88973 7.2821 4.9401 7.2482 4.71627 7.01093C4.29657 6.5816 4.16787 5.9432 4.36933 5.33873L4.46447 5.06757L4.83377 5.43477C5.58923 6.17483 6.47897 6.6155 7.4974 6.74543L7.7772 6.77933Z" fill="#F9D101"/>
</svg>
