<svg width="14" height="14" viewBox="0 0 14 14" fill="none" xmlns="http://www.w3.org/2000/svg">
<path d="M1.70711 0.292893C1.31658 -0.097631 0.683417 -0.097631 0.292893 0.292893C-0.0976312 0.683417 -0.0976309 1.31658 0.292893 1.70711L5.24266 6.65688L0.292922 11.6066C-0.0976023 11.9971 -0.0976023 12.6303 0.292922 13.0208C0.683446 13.4114 1.31661 13.4114 1.70714 13.0208L6.65688 8.07109L11.6066 13.0208C11.9971 13.4113 12.6303 13.4113 13.0208 13.0208C13.4113 12.6303 13.4113 11.9971 13.0208 11.6066L8.07109 6.65688L13.0208 1.70712C13.4114 1.3166 13.4114 0.683431 13.0208 0.292907C12.6303 -0.0976171 11.9972 -0.0976167 11.6066 0.292907L6.65688 5.24266L1.70711 0.292893Z" fill="#FED501"/>
</svg>
