<svg fill="none" height="16" viewBox="0 0 16 16" width="16" xmlns="http://www.w3.org/2000/svg" xmlns:xlink="http://www.w3.org/1999/xlink"><linearGradient id="a" gradientUnits="userSpaceOnUse" x1="8.00018" x2="8.00002" y1="0" y2="17.0667"><stop offset=".144954" stop-color="#c8c0f8"/><stop offset="1" stop-color="#585181"/></linearGradient><clipPath id="b"><path d="m0 0h16v16h-16z"/></clipPath><g clip-path="url(#b)"><path d="m0 12.6667c.00105857.8837.352588 1.7309.97748 2.3558.62489.6249 1.47212.9764 2.35585.9775h9.33337c.8837-.0011 1.7309-.3526 2.3558-.9775s.9764-1.4721.9775-2.3558v-6.00003h-16zm11.3333-3.00003c.1978 0 .3912.05865.5556.16853.1645.10988.2926.2661.3683.4488s.0955.3838.0569.5778c-.0386.1939-.1338.3721-.2737.512-.1398.1398-.318.2351-.512.2737-.194.0385-.395.0187-.5777-.057-.1828-.0756-.339-.2038-.4488-.3683-.1099-.1644-.1686-.3578-.1686-.5555 0-.2652.1054-.5196.2929-.70714.1876-.18754.4419-.29289.7071-.29289zm-3.3333 0c.19778 0 .39112.05865.55557.16853s.29262.2661.36831.4488.09549.3838.05691.5778c-.03859.1939-.13383.3721-.27368.512-.13985.1398-.31804.2351-.51202.2737-.19398.0385-.39505.0187-.57777-.057-.18273-.0756-.33891-.2038-.44879-.3683-.10988-.1644-.16853-.3578-.16853-.5555 0-.2652.10536-.5196.29289-.70714.18754-.18754.44189-.29289.70711-.29289zm-3.33333 0c.19778 0 .39112.05865.55557.16853s.29262.2661.36831.4488c.07568.1827.09549.3838.0569.5778-.03858.1939-.13382.3721-.27368.512-.13985.1398-.31803.2351-.51201.2737-.19398.0385-.39505.0187-.57778-.057-.18272-.0756-.3389-.2038-.44878-.3683-.10988-.1644-.16853-.3578-.16853-.5555 0-.2652.10535-.5196.29289-.70714s.44189-.29289.70711-.29289zm8.00003-8.33334h-.6667v-.666663c0-.176811-.0702-.346381-.1953-.471405-.125-.1250241-.2946-.195262-.4714-.195262s-.3463.0702379-.4714.195262c-.125.125024-.1952.294594-.1952.471405v.666663h-5.33337v-.666663c0-.176811-.07023-.346381-.19526-.471405-.12502-.1250241-.29459-.195262-.4714-.195262s-.34638.0702379-.47141.195262c-.12502.125024-.19526.294594-.19526.471405v.666663h-.66667c-.88373.00106-1.73096.35259-2.35585.97748-.624892.6249-.97642143 1.47213-.97748 2.35586v.66666h16v-.66666c-.0011-.88373-.3526-1.73096-.9775-2.35586-.6249-.62489-1.4721-.97642-2.3558-.97748z" fill="url(#a)"/></g></svg>