<svg width="16" height="16" viewBox="0 0 16 16" fill="none" xmlns="http://www.w3.org/2000/svg">
<path d="M13.075 7.27187H12.3469V4.3625C12.3469 1.95313 10.3938 0 7.98438 0C5.575 0 3.62188 1.95313 3.62188 4.3625V7.27187H2.89375C2.49375 7.27187 2.16563 7.59688 2.16563 8V15.2719C2.16563 15.675 2.49063 16 2.89375 16H13.075C13.475 16 13.8031 15.675 13.8031 15.2719V8C13.8031 7.59688 13.475 7.27187 13.075 7.27187ZM10.8938 7.27187H5.075V4.3625C5.075 2.75625 6.37813 1.45312 7.98438 1.45312C9.59063 1.45312 10.8938 2.75625 10.8938 4.3625V7.27187Z" fill="#387430"/>
</svg>
