<svg fill="none" height="32" viewBox="0 0 32 32" width="32" xmlns="http://www.w3.org/2000/svg"><g fill="#ffe145"><path d="m31.5423 2.18688c-.2353-.23578-.6172-.23619-.8526-.001l-7.2342 7.21506-2.61-2.83478c-.2256-.24481-.6069-.26069-.8521-.03519-.245.22553-.2607.60703-.0352.85207l3.0352 3.29626c.1112.1208.2667.191.4307.1944.0045.0002.0087.0002.0129.0002.1594 0 .3128-.0633.4257-.1759l7.6784-7.65828c.236-.23515.2364-.61706.0012-.85284z"/><path d="m31.397 7.39697c-.3331 0-.603.26994-.603.60303 0 3.7463-3.0477 6.794-6.794 6.794-3.7461 0-6.794-3.0477-6.794-6.794 0-3.74612 3.0479-6.79397 6.794-6.79397.3331 0 .603-.269936.603-.602999 0-.333093-.2699-.603031-.603-.603031-4.4113 0-8 3.58875-8 8 0 4.4111 3.5887 8 8 8 4.4111 0 8-3.5889 8-8 0-.33306-.2699-.60303-.603-.60303z"/><path d="m31.397 23.397c-.3331 0-.603.2699-.603.603 0 3.7463-3.0477 6.794-6.794 6.794-3.7461 0-6.794-3.0477-6.794-6.794 0-3.7461 3.0479-6.794 6.794-6.794.3331 0 .603-.2699.603-.603s-.2699-.603-.603-.603c-4.4113 0-8 3.5887-8 8 0 4.4111 3.5887 8 8 8 4.4111 0 8-3.5889 8-8 0-.3331-.2699-.603-.603-.603z"/><path d="m8.348 15.6521c-3.16598 0-5.96104-1.9047-7.12209-4.853-.10572-.2671.02637-.5704.29425-.6761.26711-.1043.57116.0257.67688.295 1.00247 2.5454 3.41704 4.1906 6.15096 4.1906 3.6438 0 6.6087-2.965 6.6087-6.60873 0-3.64376-2.9649-6.60874-6.6087-6.60874-2.73392 0-5.14849 1.64522-6.15096 4.1906-.10649.26928-.40977.39933-.67688.29501-.26788-.10572-.39997-.40901-.29425-.67612 1.16105-2.94828 3.95611-4.852964 7.12209-4.852964 4.2191 0 7.6522 3.433084 7.6522 7.652214s-3.4331 7.65223-7.6522 7.65223z"/></g><path d="m10.6087 24.522h-10.086961c-.288001 0-.521739-.2337-.521739-.5217s.233738-.5218.521739-.5218h10.086961c.288 0 .5217.2338.5217.5218s-.2337.5217-.5217.5217z" fill="#8580a1"/><path d="m7.8263 27.3042c-.13362 0-.26711-.0507-.36876-.1529-.2038-.2039-.2038-.5343 0-.7382l2.41393-2.4138-2.41393-2.414c-.2038-.2038-.2038-.5343 0-.7381.20393-.2038.53435-.2038.73815 0l2.78261 2.7827c.2038.2038.2038.5342 0 .738l-2.78261 2.7826c-.10228.103-.23577.1537-.36939.1537z" fill="#8580a1"/><path d="m8.348 31.6521c-3.16598 0-5.96104-1.9047-7.12209-4.853-.10572-.2671.02637-.5704.29425-.6761.26711-.1043.57116.0257.67688.295 1.00247 2.5454 3.41704 4.1906 6.15096 4.1906 3.6438 0 6.6087-2.965 6.6087-6.6087 0-3.6438-2.9649-6.6088-6.6087-6.6088-2.73392 0-5.14849 1.6452-6.15096 4.1906-.10649.2693-.40977.3994-.67688.295-.26788-.1057-.39997-.409-.29425-.6761 1.16105-2.9483 3.95611-4.8529 7.12209-4.8529 4.2191 0 7.6522 3.433 7.6522 7.6522 0 4.2191-3.4331 7.6522-7.6522 7.6522z" fill="#8580a1"/></svg>