<svg fill="none" height="48" viewBox="0 0 48 48" width="48" xmlns="http://www.w3.org/2000/svg" xmlns:xlink="http://www.w3.org/1999/xlink"><filter id="a" color-interpolation-filters="sRGB" filterUnits="userSpaceOnUse" height="53" width="53" x="-5" y="-5.00006"><feFlood flood-opacity="0" result="BackgroundImageFix"/><feBlend in="SourceGraphic" in2="BackgroundImageFix" mode="normal" result="shape"/><feColorMatrix in="SourceAlpha" result="hardAlpha" type="matrix" values="0 0 0 0 0 0 0 0 0 0 0 0 0 0 0 0 0 0 127 0"/><feOffset dx="-6" dy="-6"/><feGaussianBlur stdDeviation="2.5"/><feComposite in2="hardAlpha" k2="-1" k3="1" operator="arithmetic"/><feColorMatrix type="matrix" values="0 0 0 0 0 0 0 0 0 0 0 0 0 0 0 0 0 0 0.1 0"/><feBlend in2="shape" mode="normal" result="effect1_innerShadow"/></filter><linearGradient id="b" gradientUnits="userSpaceOnUse" x1="24" x2="24" y1="-.000061" y2="47.9999"><stop offset="0" stop-color="#ff6a6a"/><stop offset="1" stop-color="#ff3232"/></linearGradient><clipPath id="c"><path d="m16 15.9999h16v16h-16z"/></clipPath><g filter="url(#a)"><circle cx="24" cy="23.9999" fill="url(#b)" r="24"/></g><g clip-path="url(#c)"><path d="m25.4659 24.0131 6.2301-6.2303c.4054-.4052.4054-1.0605 0-1.4657-.4053-.4053-1.0605-.4053-1.4658 0l-6.2303 6.2302-6.2301-6.2302c-.4054-.4053-1.0605-.4053-1.4657 0-.4055.4052-.4055 1.0605 0 1.4657l6.2301 6.2303-6.2301 6.2303c-.4055.4052-.4055 1.0604 0 1.4657.2019.2022.4675.3037.7329.3037.2653 0 .5307-.1015.7328-.3037l6.2301-6.2303 6.2303 6.2303c.2022.2022.4675.3037.7329.3037.2653 0 .5307-.1015.7329-.3037.4054-.4053.4054-1.0605 0-1.4657z" fill="#6a0303"/></g></svg>