<svg fill="none" height="48" viewBox="0 0 48 48" width="48" xmlns="http://www.w3.org/2000/svg" xmlns:xlink="http://www.w3.org/1999/xlink"><filter id="a" color-interpolation-filters="sRGB" filterUnits="userSpaceOnUse" height="53" width="53" x="-5" y="-5.00006"><feFlood flood-opacity="0" result="BackgroundImageFix"/><feBlend in="SourceGraphic" in2="BackgroundImageFix" mode="normal" result="shape"/><feColorMatrix in="SourceAlpha" result="hardAlpha" type="matrix" values="0 0 0 0 0 0 0 0 0 0 0 0 0 0 0 0 0 0 127 0"/><feOffset dx="-6" dy="-6"/><feGaussianBlur stdDeviation="2.5"/><feComposite in2="hardAlpha" k2="-1" k3="1" operator="arithmetic"/><feColorMatrix type="matrix" values="0 0 0 0 0 0 0 0 0 0 0 0 0 0 0 0 0 0 0.1 0"/><feBlend in2="shape" mode="normal" result="effect1_innerShadow"/></filter><linearGradient id="b" gradientUnits="userSpaceOnUse" x1="24" x2="24" y1="-.000061" y2="47.9999"><stop offset="0" stop-color="#ffb545"/><stop offset="1" stop-color="#f90"/></linearGradient><clipPath id="c"><path d="m16 15.9999h16v16h-16z"/></clipPath><g filter="url(#a)"><circle cx="24" cy="23.9999" fill="url(#b)" r="24"/></g><g clip-path="url(#c)" fill="#5c3700"><path d="m16.4239 24.1315h.0003l1.0496-.0008c.2173-.0001.3934-.1765.3932-.3938-.0009-1.3067.4197-2.5475 1.2162-3.588 1.1251-1.4697 2.8364-2.3127 4.6951-2.3127 1.306 0 2.5444.4196 3.5814 1.2135.3437.2631.6523.557.9249.8792l-1.9381-.3422c-.1027-.0181-.2085.0053-.2941.0652-.0855.0598-.1437.1512-.1619.254l-.1825 1.0335c-.0377.2141.1051.4182.3192.456l4.651.8211c.0228.0041.0456.006.0685.006.0802 0 .159-.0245.2257-.0711.0855-.0599.1437-.1512.1619-.254l.8211-4.6511c.0378-.2141-.1051-.4182-.3192-.456l-1.0335-.1825c-.2145-.0379-.4182.1052-.456.3192l-.3456 1.9574c-.3876-.4808-.8328-.9164-1.3249-1.2931-1.36-1.0411-2.984-1.5914-4.6966-1.5914-2.4361 0-4.6795 1.1054-6.1548 3.0326-1.0443 1.3641-1.5957 2.9913-1.5945 4.7057 0 .1044.0416.2045.1154.2783.0739.0736.1739.115.2782.115z"/><path d="m31.8542 23.9834c-.0737-.0736-.1738-.1151-.2781-.1151-.0001 0-.0002 0-.0003 0l-1.0496.0008c-.2173.0002-.3934.1765-.3932.3939.0009 1.3067-.4196 2.5474-1.2162 3.5879-1.1251 1.4698-2.8365 2.3127-4.6952 2.3127-1.3059 0-2.5443-.4196-3.5813-1.2134-.3437-.2632-.6522-.5571-.9249-.8792l1.9381.3421c.1029.0182.2086-.0052.2941-.0651s.1437-.1513.1619-.2541l.1824-1.0335c.0378-.2141-.1051-.4182-.3192-.456l-4.651-.8211c-.1027-.0181-.2086.0053-.2941.0651-.0855.0599-.1437.1513-.1619.2541l-.8211 4.6511c-.0378.214.1051.4181.3192.4559l1.0335.1825c.0232.0041.0462.0061.0689.0061.1874 0 .3534-.1344.3872-.3253l.3455-1.9574c.3877.4808.8329.9164 1.325 1.2932 1.3598 1.041 2.9839 1.5913 4.6965 1.5913 2.4362 0 4.6795-1.1053 6.1548-3.0325 1.0443-1.3642 1.5956-2.9914 1.5945-4.7058-.0001-.1043-.0416-.2044-.1155-.2782z"/></g></svg>